<svg width="393" height="112" viewBox="0 0 393 112" fill="none" xmlns="http://www.w3.org/2000/svg">
<path d="M366.379 63.86C366.007 64.108 365.759 64.232 365.635 64.232C365.552 64.232 365.511 64.1493 365.511 63.984C365.511 63.8187 365.635 63.6533 365.883 63.488C368.528 61.6693 370.802 60.76 372.703 60.76C375.514 60.76 376.919 62.0413 376.919 64.604C376.919 65.5133 376.216 67.208 374.811 69.688C373.406 72.1267 372 74.6893 370.595 77.376C369.19 80.0627 368.487 82.1707 368.487 83.7C368.487 85.8493 369.934 86.924 372.827 86.924C374.232 86.924 376.072 86.2627 378.345 84.94C380.66 83.6173 382.685 82.2327 384.421 80.786C386.157 79.3393 387.686 77.8927 389.009 76.446C390.332 74.9993 391.138 74.028 391.427 73.532C391.758 73.036 392.006 72.788 392.171 72.788C392.336 72.788 392.419 72.85 392.419 72.974C392.419 73.098 392.378 73.2427 392.295 73.408C390.27 76.136 388.038 78.5747 385.599 80.724C382.954 83.2453 380.06 85.2707 376.919 86.8C373.778 88.288 371.277 89.032 369.417 89.032C367.557 89.032 366.11 88.6187 365.077 87.792C364.044 86.9653 363.527 85.7253 363.527 84.072C363.527 82.4187 364.292 80.1867 365.821 77.376C367.35 74.5653 368.88 71.9613 370.409 69.564C371.938 67.1253 372.703 65.5133 372.703 64.728C372.703 63.9013 372.517 63.2607 372.145 62.806C371.814 62.3513 371.38 62.124 370.843 62.124C369.603 62.124 368.115 62.7027 366.379 63.86ZM380.267 47.244C380.267 46.3347 380.68 45.384 381.507 44.392C382.251 43.4 382.995 42.904 383.739 42.904C384.483 42.904 385.041 43.1313 385.413 43.586C385.785 43.9993 385.971 44.5987 385.971 45.384C385.971 46.1693 385.599 47.058 384.855 48.05C384.111 49.0007 383.243 49.476 382.251 49.476C380.928 49.476 380.267 48.732 380.267 47.244Z" fill="white"/>
<path d="M346.42 48.36C349.809 45.5493 352.764 43.0073 355.286 40.734C357.848 38.4193 360.556 35.712 363.408 32.612C366.301 29.512 368.678 26.598 370.538 23.87C372.398 21.1007 373.948 18.104 375.188 14.88C376.428 11.6147 377.048 8.47333 377.048 5.456C377.048 4.75333 376.903 4.17467 376.614 3.72C376.324 3.224 375.932 2.976 375.436 2.976C373.576 2.976 370.806 5.642 367.128 10.974C363.449 16.2647 359.564 22.8573 355.472 30.752L346.42 48.36ZM339.352 55.18C330.92 61.256 326.683 64.2733 326.642 64.232C326.518 64.232 326.456 64.1493 326.456 63.984C326.456 63.8187 326.58 63.6533 326.828 63.488C334.309 58.0733 338.773 54.7667 340.22 53.568L351.008 33.108C351.38 32.4053 352.186 30.8553 353.426 28.458C354.666 26.0607 355.534 24.4073 356.03 23.498C356.567 22.5887 357.394 21.1213 358.51 19.096C359.667 17.0707 360.659 15.5207 361.486 14.446C362.312 13.33 363.325 12.0073 364.524 10.478C366.673 7.75 369.236 5.332 372.212 3.224C375.064 1.07467 377.626 0 379.9 0C380.644 0 381.181 0.309999 381.512 0.929998C381.842 1.55 382.008 2.14933 382.008 2.728C382.008 9.58933 378.928 16.8433 372.77 24.49C370.703 27.0527 368.74 29.326 366.88 31.31C365.061 33.294 362.746 35.5467 359.936 38.068C356.464 41.2093 351.628 45.3013 345.428 50.344L336.624 68.076C338.36 66.34 340.282 64.666 342.39 63.054C344.539 61.442 346.192 60.2847 347.35 59.582C350.16 57.8873 352.578 57.04 354.604 57.04C355.926 57.04 357.001 57.5153 357.828 58.466C358.654 59.4167 359.068 60.7187 359.068 62.372C359.068 63.984 358.365 66.154 356.96 68.882C355.554 71.5687 354.149 74.3587 352.744 77.252C351.338 80.1453 350.636 82.6667 350.636 84.816C350.636 86.2213 351.256 86.924 352.496 86.924C353.86 86.924 355.782 86.18 358.262 84.692C360.783 83.1627 363.242 81.344 365.64 79.236C368.078 77.128 369.938 75.1027 371.22 73.16C371.385 72.912 371.55 72.788 371.716 72.788C371.881 72.788 371.964 72.85 371.964 72.974C371.964 73.098 371.922 73.2427 371.84 73.408C369.608 76.384 367.376 78.8433 365.144 80.786C362.953 82.7287 360.328 84.5887 357.27 86.366C354.252 88.1433 351.752 89.032 349.768 89.032C346.957 89.032 345.552 87.5027 345.552 84.444C345.552 82.46 346.316 79.9387 347.846 76.88C349.375 73.8213 350.904 70.928 352.434 68.2C353.963 65.472 354.728 63.6327 354.728 62.682C354.728 61.7313 354.48 60.9667 353.984 60.388C353.488 59.8093 352.826 59.52 352 59.52C349.809 59.52 346.833 61.1733 343.072 64.48C339.31 67.7453 336.706 70.4733 335.26 72.664C330.672 79.484 328.026 84.6507 327.324 88.164C327.241 88.4947 326.828 88.66 326.084 88.66C325.34 88.66 324.72 88.722 324.224 88.846C323.728 88.97 323.438 89.032 323.356 89.032C322.612 89.032 322.24 88.7427 322.24 88.164C322.24 87.7507 323.128 85.7873 324.906 82.274C326.683 78.7607 328.274 75.7227 329.68 73.16C334.681 63.612 337.905 57.6187 339.352 55.18Z" fill="white"/>
<path d="M295.338 81.716L295.214 83.328C295.214 84.94 295.648 86.3453 296.516 87.544C297.425 88.7013 298.83 89.28 300.732 89.28C302.674 89.28 305.072 88.164 307.924 85.932C310.817 83.6587 313.318 80.8067 315.426 77.376C317.575 73.904 318.65 70.68 318.65 67.704C318.65 63.8187 317.575 61.876 315.426 61.876C314.186 61.876 312.78 62.372 311.21 63.364C309.639 64.356 308.151 65.596 306.746 67.084C304.266 69.6467 302.447 71.7547 301.29 73.408C301.124 73.656 300.959 73.78 300.794 73.78C300.628 73.78 300.546 73.718 300.546 73.594C300.546 73.47 300.587 73.3253 300.67 73.16C306.87 64.5627 312.326 60.264 317.038 60.264C318.939 60.264 320.468 61.008 321.626 62.496C322.783 63.984 323.362 65.8233 323.362 68.014C323.362 70.2047 322.556 72.664 320.944 75.392C319.332 78.12 317.348 80.5587 314.992 82.708C312.636 84.8573 310.052 86.6553 307.242 88.102C304.472 89.5487 302.116 90.272 300.174 90.272C298.272 90.272 296.33 89.9413 294.346 89.28C292.403 88.6187 291.411 87.7507 291.37 86.676C291.37 86.1387 291.907 85.1467 292.982 83.7C294.098 82.212 294.842 81.468 295.214 81.468C295.296 81.468 295.338 81.5507 295.338 81.716Z" fill="white"/>
<path d="M277.852 63.86C277.48 64.108 277.232 64.232 277.108 64.232C277.025 64.232 276.984 64.1493 276.984 63.984C276.984 63.8187 277.108 63.6533 277.356 63.488C280.001 61.6693 282.275 60.76 284.176 60.76C286.987 60.76 288.392 62.0413 288.392 64.604C288.392 65.5133 287.689 67.208 286.284 69.688C284.879 72.1267 283.473 74.6893 282.068 77.376C280.663 80.0627 279.96 82.1707 279.96 83.7C279.96 85.8493 281.407 86.924 284.3 86.924C285.705 86.924 287.545 86.2627 289.818 84.94C292.133 83.6173 294.158 82.2327 295.894 80.786C297.63 79.3393 299.159 77.8927 300.482 76.446C301.805 74.9993 302.611 74.028 302.9 73.532C303.231 73.036 303.479 72.788 303.644 72.788C303.809 72.788 303.892 72.85 303.892 72.974C303.892 73.098 303.851 73.2427 303.768 73.408C301.743 76.136 299.511 78.5747 297.072 80.724C294.427 83.2453 291.533 85.2707 288.392 86.8C285.251 88.288 282.75 89.032 280.89 89.032C279.03 89.032 277.583 88.6187 276.55 87.792C275.517 86.9653 275 85.7253 275 84.072C275 82.4187 275.765 80.1867 277.294 77.376C278.823 74.5653 280.353 71.9613 281.882 69.564C283.411 67.1253 284.176 65.5133 284.176 64.728C284.176 63.9013 283.99 63.2607 283.618 62.806C283.287 62.3513 282.853 62.124 282.316 62.124C281.076 62.124 279.588 62.7027 277.852 63.86ZM291.74 47.244C291.74 46.3347 292.153 45.384 292.98 44.392C293.724 43.4 294.468 42.904 295.212 42.904C295.956 42.904 296.514 43.1313 296.886 43.586C297.258 43.9993 297.444 44.5987 297.444 45.384C297.444 46.1693 297.072 47.058 296.328 48.05C295.584 49.0007 294.716 49.476 293.724 49.476C292.401 49.476 291.74 48.732 291.74 47.244Z" fill="white"/>
<path d="M264.668 63.736L264.296 63.612C264.296 64.48 264.627 65.3067 265.288 66.092C265.991 66.836 266.818 67.332 267.768 67.58C267.851 67.0427 267.892 66.3607 267.892 65.534C267.892 65.3273 267.892 65.1 267.892 64.852C267.892 63.6947 267.541 62.4753 266.838 61.194C266.136 59.9127 265.578 59.272 265.164 59.272C264.586 59.272 264.296 60.0987 264.296 61.752C264.544 61.8347 264.792 62 265.04 62.248C265.288 62.496 265.412 62.7233 265.412 62.93C265.412 63.1367 265.309 63.3227 265.102 63.488C264.896 63.6533 264.751 63.736 264.668 63.736ZM267.52 68.696C265.867 68.6133 264.379 67.9727 263.056 66.774C261.775 65.5753 261.072 64.1493 260.948 62.496C258.51 62.496 256.03 63.6327 253.508 65.906C251.028 68.1793 249.024 70.9487 247.494 74.214C245.965 77.4793 245.2 80.5587 245.2 83.452C245.2 84.568 245.531 85.622 246.192 86.614C246.895 87.5647 247.887 88.04 249.168 88.04C252.888 88.04 256.629 85.9733 260.39 81.84C264.193 77.7067 266.57 73.3253 267.52 68.696ZM278.494 63.116C278.618 63.116 278.68 63.1987 278.68 63.364C278.68 63.5293 278.536 63.6947 278.246 63.86C277.998 64.0253 277.482 64.3973 276.696 64.976C275.952 65.5133 275.332 65.9473 274.836 66.278C274.382 66.5673 273.782 66.9187 273.038 67.332C271.592 68.1173 270.166 68.572 268.76 68.696C267.727 73.9867 265.082 78.802 260.824 83.142C256.608 87.482 252.186 89.652 247.556 89.652C242.927 89.652 240.612 87.544 240.612 83.328C240.612 79.9387 241.604 76.508 243.588 73.036C245.614 69.564 248.218 66.712 251.4 64.48C254.583 62.248 257.766 61.132 260.948 61.132C261.031 60.0987 261.341 59.086 261.878 58.094C262.416 57.0607 263.18 56.544 264.172 56.544C265.702 56.544 266.9 57.3087 267.768 58.838C268.678 60.3673 269.132 62.3307 269.132 64.728C269.132 65.3893 269.05 66.3813 268.884 67.704C270.744 67.704 273.72 66.2987 277.812 63.488C278.184 63.24 278.412 63.116 278.494 63.116Z" fill="white"/>
<path d="M203.204 52.692L204.816 49.84C203.535 50.1707 202.584 50.5013 201.964 50.832C202.253 51.3693 202.667 51.9893 203.204 52.692ZM195.64 52.568L194.4 52.816C194.069 52.816 193.904 52.6507 193.904 52.32C193.904 51.948 197.913 50.4187 205.932 47.732C209.487 41.2427 211.264 36.4893 211.264 33.472C211.264 29.3387 209.569 27.272 206.18 27.272C204.279 27.272 202.543 27.6233 200.972 28.326C199.443 28.9873 197.789 30.2067 196.012 31.984C195.805 32.1907 195.599 32.418 195.392 32.666C195.02 33.1207 194.772 33.348 194.648 33.348C194.4 33.348 194.276 33.2033 194.276 32.914C194.276 32.6247 194.731 32.0253 195.64 31.116C199.236 27.396 203.493 25.536 208.412 25.536C210.892 25.536 212.835 26.1353 214.24 27.334C215.645 28.4913 216.348 29.9587 216.348 31.736C216.348 34.712 214.777 39.2587 211.636 45.376C217.34 42.8133 223.478 39.8787 230.05 36.572C236.663 33.224 241.065 30.744 243.256 29.132C244.041 28.5533 245.075 27.9127 246.356 27.21C247.679 26.5073 248.485 26.156 248.774 26.156C249.063 26.156 249.208 26.2387 249.208 26.404C249.208 26.6933 248.485 27.4787 247.038 28.76C245.591 30 243.525 31.488 240.838 33.224C238.193 34.96 235.527 36.3653 232.84 37.44L210.644 47.36L205.56 56.66C206.221 57.776 207.172 59.388 208.412 61.496C209.569 63.5627 210.52 65.216 211.264 66.456C213.372 69.9693 215.811 73.8547 218.58 78.112C221.391 82.3693 223.602 85.3247 225.214 86.978C228.355 90.2433 231.765 91.876 235.444 91.876C239.164 91.876 242.967 90.388 246.852 87.412C247.017 87.2467 247.162 87.164 247.286 87.164C247.41 87.164 247.472 87.2053 247.472 87.288C247.472 88.4867 245.963 89.768 242.946 91.132C239.97 92.5373 236.973 93.24 233.956 93.24C229.285 93.24 225.565 92.3307 222.796 90.512C220.068 88.7347 217.133 85.4693 213.992 80.716C209.9 74.4333 206.139 68.1507 202.708 61.868C198.037 70.176 194.111 76.4173 190.928 80.592C190.597 80.9227 190.308 81.1707 190.06 81.336C189.233 81.9147 186.836 82.204 182.868 82.204C182.289 82.204 182 82.08 182 81.832C182 81.7493 182.124 81.646 182.372 81.522C183.529 80.9847 184.48 80.3027 185.224 79.476C190.019 73.9787 195.061 66.704 200.352 57.652C199.691 56.536 198.864 55.42 197.872 54.304C196.88 53.1467 196.136 52.568 195.64 52.568Z" fill="white"/>
<path d="M142.796 63.86C142.424 64.108 142.176 64.232 142.052 64.232C141.969 64.232 141.928 64.1493 141.928 63.984C141.928 63.8187 142.052 63.6533 142.3 63.488C144.945 61.6693 147.218 60.76 149.12 60.76C151.93 60.76 153.336 62.0413 153.336 64.604C153.336 65.5133 152.633 67.208 151.228 69.688C149.822 72.1267 148.417 74.6893 147.012 77.376C145.606 80.0627 144.904 82.1707 144.904 83.7C144.904 85.8493 146.35 86.924 149.244 86.924C150.649 86.924 152.488 86.2627 154.762 84.94C157.076 83.6173 159.102 82.2327 160.838 80.786C162.574 79.3393 164.103 77.8927 165.426 76.446C166.748 74.9993 167.554 74.028 167.844 73.532C168.174 73.036 168.422 72.788 168.588 72.788C168.753 72.788 168.836 72.85 168.836 72.974C168.836 73.098 168.794 73.2427 168.712 73.408C166.686 76.136 164.454 78.5747 162.016 80.724C159.37 83.2453 156.477 85.2707 153.336 86.8C150.194 88.288 147.694 89.032 145.834 89.032C143.974 89.032 142.527 88.6187 141.494 87.792C140.46 86.9653 139.944 85.7253 139.944 84.072C139.944 82.4187 140.708 80.1867 142.238 77.376C143.767 74.5653 145.296 71.9613 146.826 69.564C148.355 67.1253 149.12 65.5133 149.12 64.728C149.12 63.9013 148.934 63.2607 148.562 62.806C148.231 62.3513 147.797 62.124 147.26 62.124C146.02 62.124 144.532 62.7027 142.796 63.86ZM156.684 47.244C156.684 46.3347 157.097 45.384 157.924 44.392C158.668 43.4 159.412 42.904 160.156 42.904C160.9 42.904 161.458 43.1313 161.83 43.586C162.202 43.9993 162.388 44.5987 162.388 45.384C162.388 46.1693 162.016 47.058 161.272 48.05C160.528 49.0007 159.66 49.476 158.668 49.476C157.345 49.476 156.684 48.732 156.684 47.244Z" fill="white"/>
<path d="M99.4994 64.108C99.3341 64.1907 99.1687 64.232 99.0034 64.232C98.8381 64.232 98.7554 64.1493 98.7554 63.984C98.7554 63.8187 99.6854 63.116 101.545 61.876C103.405 60.636 105.017 60.016 106.381 60.016C107.787 60.016 108.758 60.2433 109.295 60.698C109.874 61.1113 110.163 61.9793 110.163 63.302C110.163 64.6247 109.254 66.7947 107.435 69.812C107.683 69.6053 108.159 69.1713 108.861 68.51C109.564 67.8073 110.101 67.2907 110.473 66.96C110.845 66.6293 111.362 66.1747 112.023 65.596C112.726 65.0173 113.305 64.5627 113.759 64.232C114.255 63.9013 114.813 63.5707 115.433 63.24C116.632 62.5787 117.769 62.248 118.843 62.248C120.166 62.248 120.827 63.3227 120.827 65.472C120.827 66.8773 120.414 68.4067 119.587 70.06L119.215 70.928C119.835 70.308 120.951 69.3573 122.563 68.076C124.134 66.836 125.539 65.8233 126.779 65.038C130.045 62.93 132.731 61.876 134.839 61.876C136.989 61.876 138.063 62.8267 138.063 64.728C138.063 65.72 137.34 67.4147 135.893 69.812C134.488 72.168 132.938 74.648 131.243 77.252C129.549 79.8147 127.978 82.9767 126.531 86.738C125.126 90.458 124.423 93.9507 124.423 97.216C124.423 100.523 125.229 103.437 126.841 105.958C128.495 108.479 130.851 109.74 133.909 109.74C137.009 109.74 140.605 108.273 144.697 105.338C148.789 102.445 151.869 99.4893 153.935 96.472C154.101 96.224 154.266 96.1 154.431 96.1C154.597 96.1 154.679 96.162 154.679 96.286C154.679 96.41 154.638 96.5547 154.555 96.72C151.662 100.647 148.149 104.015 144.015 106.826C139.923 109.678 136.1 111.104 132.545 111.104C128.991 111.104 126.056 109.885 123.741 107.446C121.468 105.007 120.331 101.949 120.331 98.27C120.331 94.6327 120.951 90.9747 122.191 87.296C123.473 83.576 124.857 80.4967 126.345 78.058C127.833 75.6193 129.197 73.3047 130.437 71.114C131.719 68.882 132.359 67.332 132.359 66.464C132.359 65.5547 131.863 65.1 130.871 65.1C129.301 65.1 127.255 66.0093 124.733 67.828C122.253 69.6467 120.187 71.548 118.533 73.532C116.88 75.516 115.165 76.508 113.387 76.508C113.139 76.508 113.015 76.3427 113.015 76.012C113.015 75.6813 113.077 75.4333 113.201 75.268C113.325 75.0613 113.511 74.9167 113.759 74.834C114.007 74.71 114.173 74.6067 114.255 74.524C115.909 70.9693 116.735 68.5927 116.735 67.394C116.735 66.1953 116.405 65.596 115.743 65.596C114.049 65.596 111.155 67.7867 107.063 72.168C106.03 73.284 104.315 75.9293 101.917 80.104C99.5201 84.2373 98.2181 86.428 98.0114 86.676C97.8461 86.924 97.6187 87.1307 97.3294 87.296C97.0814 87.4613 96.7301 87.6473 96.2754 87.854C95.8621 88.0193 95.2627 88.3087 94.4774 88.722C93.6921 89.1767 93.1547 89.404 92.8654 89.404C92.5761 89.404 92.4314 89.2387 92.4314 88.908C92.4314 88.5773 92.6381 88.1847 93.0514 87.73C93.5061 87.234 94.2087 86.18 95.1594 84.568C96.1514 82.956 97.3914 80.8067 98.8794 78.12C100.409 75.4333 101.318 73.8627 101.607 73.408C101.897 72.912 102.207 72.3747 102.537 71.796C102.868 71.176 103.116 70.7213 103.281 70.432C103.447 70.1427 103.653 69.75 103.901 69.254C104.191 68.758 104.397 68.386 104.521 68.138C104.687 67.8487 104.873 67.518 105.079 67.146C105.286 66.7327 105.431 66.402 105.513 66.154C105.637 65.906 105.741 65.6373 105.823 65.348C105.989 64.8107 106.071 64.3147 106.071 63.86C106.071 62.4547 105.451 61.752 104.211 61.752C103.343 61.752 101.773 62.5373 99.4994 64.108Z" fill="white"/>
<path d="M96.6101 81.592C98.4288 79.9387 99.9581 78.4093 101.198 77.004C102.438 75.5987 103.285 74.5447 103.74 73.842C104.236 73.1393 104.567 72.788 104.732 72.788C104.897 72.788 104.98 72.85 104.98 72.974C104.98 73.098 104.939 73.2427 104.856 73.408C102.417 77.3347 98.8628 81.0547 94.1921 84.568C89.5215 88.04 85.1401 89.776 81.0481 89.776C78.8988 89.776 77.8241 88.8253 77.8241 86.924C77.8241 85.684 78.1548 84.196 78.8161 82.46C76.2535 84.3613 73.5048 86.0147 70.5701 87.42C67.6768 88.8253 65.1348 89.528 62.9441 89.528C61.9521 89.528 60.9808 89.218 60.0301 88.598C59.0795 87.978 58.6041 86.924 58.6041 85.436C58.6041 83.9067 60.2575 80.2487 63.5641 74.462C66.8708 68.634 68.5241 65.1413 68.5241 63.984C68.5241 62.8267 67.8835 62.248 66.6021 62.248C65.3621 62.248 63.9361 62.7853 62.3241 63.86C61.9521 64.108 61.7041 64.232 61.5801 64.232C61.4975 64.232 61.4561 64.1493 61.4561 63.984C61.4561 63.8187 61.5801 63.6533 61.8281 63.488C64.4735 61.6693 66.7468 60.76 68.6481 60.76C71.3761 60.76 72.7401 61.9587 72.7401 64.356C72.7401 65.596 71.1695 69.006 68.0281 74.586C64.8868 80.1247 63.3161 83.39 63.3161 84.382C63.3161 85.374 63.6675 86.0767 64.3701 86.49C65.0728 86.862 65.8375 87.048 66.6641 87.048C68.7721 87.048 71.1281 86.2213 73.7321 84.568C76.3361 82.8733 78.3615 81.2613 79.8081 79.732C80.7175 77.748 82.3295 74.6893 84.6441 70.556C86.9588 66.3813 88.4055 63.9427 88.9841 63.24C90.4308 61.6693 91.7535 60.884 92.9521 60.884C93.2828 60.884 93.4481 61.132 93.4481 61.628C93.4481 62.124 92.4768 64.0873 90.5341 67.518C88.6328 70.9073 86.5041 74.1107 84.1481 77.128C82.7428 80.1867 82.0401 82.7907 82.0401 84.94C82.0401 85.6013 82.2261 86.1593 82.5981 86.614C82.9701 87.0687 83.4455 87.296 84.0241 87.296C86.0908 87.296 88.2401 86.7587 90.4721 85.684C92.7455 84.568 94.7915 83.204 96.6101 81.592Z" fill="white"/>
<path d="M21.204 53.692L22.816 50.84C21.5347 51.1707 20.584 51.5013 19.964 51.832C20.2533 52.3693 20.6667 52.9893 21.204 53.692ZM13.64 53.568L12.4 53.816C12.0693 53.816 11.904 53.6507 11.904 53.32C11.904 52.948 15.9133 51.4187 23.932 48.732C27.4867 42.2427 29.264 37.4893 29.264 34.472C29.264 30.3387 27.5693 28.272 24.18 28.272C22.2787 28.272 20.5427 28.6233 18.972 29.326C17.4427 29.9873 15.7893 31.2067 14.012 32.984C13.8053 33.1907 13.5987 33.418 13.392 33.666C13.02 34.1207 12.772 34.348 12.648 34.348C12.4 34.348 12.276 34.2033 12.276 33.914C12.276 33.6247 12.7307 33.0253 13.64 32.116C17.236 28.396 21.4933 26.536 26.412 26.536C28.892 26.536 30.8347 27.1353 32.24 28.334C33.6453 29.4913 34.348 30.9587 34.348 32.736C34.348 35.712 32.7773 40.2587 29.636 46.376C35.34 43.8133 41.478 40.8787 48.05 37.572C54.6633 34.224 59.0653 31.744 61.256 30.132C62.0413 29.5533 63.0747 28.9127 64.356 28.21C65.6787 27.5073 66.4847 27.156 66.774 27.156C67.0633 27.156 67.208 27.2387 67.208 27.404C67.208 27.6933 66.4847 28.4787 65.038 29.76C63.5913 31 61.5247 32.488 58.838 34.224C56.1927 35.96 53.5267 37.3653 50.84 38.44L28.644 48.36L23.56 57.66C24.2213 58.776 25.172 60.388 26.412 62.496C27.5693 64.5627 28.52 66.216 29.264 67.456C31.372 70.9693 33.8107 74.8547 36.58 79.112C39.3907 83.3693 41.602 86.3247 43.214 87.978C46.3553 91.2433 49.7653 92.876 53.444 92.876C57.164 92.876 60.9667 91.388 64.852 88.412C65.0173 88.2467 65.162 88.164 65.286 88.164C65.41 88.164 65.472 88.2053 65.472 88.288C65.472 89.4867 63.9633 90.768 60.946 92.132C57.97 93.5373 54.9733 94.24 51.956 94.24C47.2853 94.24 43.5653 93.3307 40.796 91.512C38.068 89.7347 35.1333 86.4693 31.992 81.716C27.9 75.4333 24.1387 69.1507 20.708 62.868C16.0373 71.176 12.1107 77.4173 8.928 81.592C8.59733 81.9227 8.308 82.1707 8.06 82.336C7.23333 82.9147 4.836 83.204 0.868 83.204C0.289333 83.204 0 83.08 0 82.832C0 82.7493 0.124 82.646 0.372 82.522C1.52933 81.9847 2.48 81.3027 3.224 80.476C8.01867 74.9787 13.0613 67.704 18.352 58.652C17.6907 57.536 16.864 56.42 15.872 55.304C14.88 54.1467 14.136 53.568 13.64 53.568Z" fill="white"/>
</svg>
