<svg width="121" height="121" viewBox="0 0 121 121" fill="none" xmlns="http://www.w3.org/2000/svg">
<path d="M16.9381 30.4999C15.594 32.3801 13.427 32.7249 11.5295 31.3684C9.66676 30.0367 9.29454 27.7976 10.6387 25.9174C11.2547 25.0557 12.1518 24.5001 13.1755 24.3376L13.3493 25.2904C12.5942 25.4083 11.8875 25.8632 11.4395 26.4899C10.4563 27.8652 10.7379 29.5134 12.1393 30.5153C13.5755 31.5421 15.1541 31.3027 16.1373 29.9274C16.5978 29.2833 16.7971 28.6366 16.7501 27.8927L15.3661 26.9033L14.078 28.7051L13.312 28.1575L15.1664 25.5636L17.6733 27.3558C17.8668 28.5201 17.6288 29.5337 16.9381 30.4999Z" fill="white" fill-opacity="0.5"/>
<path d="M10.0459 43.4278L4.58093 37.3023L5.06157 36.2279L13.2706 36.2196L12.8074 37.2549L11.0203 37.2408L9.30748 41.0695L10.5091 42.3925L10.0459 43.4278ZM8.60322 40.2856L9.96649 37.2382L5.80774 37.2064L8.60322 40.2856Z" fill="white" fill-opacity="0.5"/>
<path d="M7.94009 52.6707L0.632812 51.0264L1.38921 47.6651C1.73452 46.1305 2.90188 45.3294 4.33202 45.6512C5.58469 45.9331 6.28539 46.9133 6.20889 48.1793L9.33777 46.4596L9.04649 47.754L5.97346 49.4205L5.59996 51.0803L8.16795 51.6582L7.94009 52.6707ZM4.65001 50.8665L5.18325 48.4969C5.39466 47.5574 4.98103 46.8611 4.10416 46.6638C3.23773 46.4688 2.55526 46.9184 2.34385 47.8579L1.81062 50.2276L4.65001 50.8665Z" fill="white" fill-opacity="0.5"/>
<path d="M7.48769 63.3035L0 63.1174L0.0691133 60.3363C0.124669 58.1007 1.67092 56.6085 3.90653 56.6641C6.14214 56.7196 7.61236 58.2867 7.5568 60.5224L7.48769 63.3035ZM6.54007 62.2417L6.5834 60.4982C6.62327 58.8937 5.5168 57.7637 3.88021 57.7231C2.24362 57.6824 1.08212 58.7667 1.04251 60.3605L0.999184 62.104L6.54007 62.2417Z" fill="white" fill-opacity="0.5"/>
<path d="M9.98423 75.565C10.6154 77.7884 9.53335 79.6972 7.28941 80.3342C5.08665 80.9595 3.10435 79.8539 2.47319 77.6305C2.18391 76.6115 2.30914 75.5637 2.82068 74.6622L3.67383 75.1207C3.29498 75.7844 3.20978 76.6206 3.42017 77.3617C3.88185 78.988 5.34583 79.7959 7.00305 79.3255C8.70144 78.8433 9.49893 77.4602 9.03725 75.8338C8.82102 75.0721 8.43983 74.513 7.82913 74.0857L6.1925 74.5503L6.79737 76.681L5.89156 76.9382L5.02079 73.8708L7.98525 73.0292C9.01605 73.6042 9.65988 74.4225 9.98423 75.565Z" fill="white" fill-opacity="0.5"/>
<path d="M15.7951 89.0107L7.59876 89.4669L7.05811 88.4214L12.1678 81.9965L12.6888 83.004L11.564 84.3928L13.4907 88.1185L15.2741 88.0033L15.7951 89.0107ZM12.4387 88.1806L10.9052 85.2153L8.28837 88.4477L12.4387 88.1806Z" fill="white" fill-opacity="0.5"/>
<path d="M21.6908 96.4335L15.8381 101.107L13.6881 98.4152C12.7065 97.1862 12.8114 95.7742 13.9568 94.8594C14.9601 94.0582 16.1633 94.1244 17.1033 94.9758L17.718 91.4587L18.5459 92.4955L17.9247 95.9357L18.9863 97.2651L21.0431 95.6225L21.6908 96.4335ZM18.2255 97.8727L16.7098 95.9747C16.1088 95.2222 15.3068 95.1096 14.6045 95.6705C13.9105 96.2247 13.8346 97.0384 14.4356 97.7909L15.9513 99.6889L18.2255 97.8727Z" fill="white" fill-opacity="0.5"/>
<path d="M29.7071 103.435L24.8805 109.163L22.7531 107.37C21.0431 105.929 20.8453 103.789 22.2864 102.079C23.7275 100.369 25.8697 100.201 27.5798 101.642L29.7071 103.435ZM28.286 103.511L26.9523 102.387C25.725 101.353 24.1513 101.51 23.0964 102.762C22.0414 104.013 22.1615 105.598 23.3806 106.625L24.7143 107.749L28.286 103.511Z" fill="white" fill-opacity="0.5"/>
<path d="M40.8481 109.138C42.9799 110.031 43.7975 112.067 42.8964 114.219C42.0119 116.331 39.9115 117.191 37.7797 116.298C36.8026 115.889 36.0616 115.138 35.6757 114.176L36.5661 113.795C36.8488 114.505 37.4494 115.093 38.16 115.39C39.7193 116.043 41.2638 115.403 41.9292 113.814C42.6113 112.185 42.0271 110.699 40.4678 110.046C39.7375 109.74 39.0626 109.69 38.3478 109.901L37.6906 111.47L39.7335 112.326L39.3698 113.194L36.4287 111.962L37.6192 109.12C38.7114 108.672 39.7526 108.679 40.8481 109.138Z" fill="white" fill-opacity="0.5"/>
<path d="M54.984 112.984L50.2271 119.674L49.0727 119.444L47.2393 111.443L48.3517 111.664L48.7353 113.41L52.849 114.228L53.8716 112.762L54.984 112.984ZM52.2413 115.089L48.9671 114.438L49.8608 118.499L52.2413 115.089Z" fill="white" fill-opacity="0.5"/>
<path d="M64.4654 113.013L64.4622 120.503L61.0168 120.501C59.4439 120.501 58.4064 119.537 58.407 118.071C58.4076 116.787 59.2105 115.889 60.4624 115.686L58.0989 113.01L59.4257 113.011L61.7251 115.644L63.4264 115.645L63.4275 113.012L64.4654 113.013ZM63.4259 116.618L60.997 116.617C60.034 116.617 59.4453 117.173 59.4449 118.072C59.4446 118.96 60.0328 119.527 60.9958 119.528L63.4247 119.529L63.4259 116.618Z" fill="white" fill-opacity="0.5"/>
<path d="M74.9396 111.12L76.402 118.465L73.6736 119.009C71.4803 119.445 69.6851 118.264 69.2484 116.071C68.8118 113.878 70.0179 112.099 72.2111 111.663L74.9396 111.12ZM74.1118 112.277L72.4013 112.618C70.8271 112.931 69.9677 114.259 70.2873 115.864C70.607 117.47 71.9198 118.365 73.4834 118.054L75.194 117.713L74.1118 112.277Z" fill="white" fill-opacity="0.5"/>
<path d="M86.3424 105.961C88.369 104.85 90.4711 105.479 91.5925 107.524C92.6933 109.532 92.0576 111.711 90.031 112.822C89.1021 113.331 88.0529 113.443 87.0599 113.145L87.3167 112.211C88.0481 112.432 88.8822 112.329 89.5577 111.959C91.0401 111.146 91.5012 109.539 90.673 108.028C89.8242 106.48 88.2981 106.011 86.8156 106.824C86.1214 107.204 85.6613 107.701 85.381 108.391L86.1989 109.883L88.141 108.818L88.5937 109.644L85.7978 111.177L84.3163 108.475C84.6469 107.342 85.301 106.532 86.3424 105.961Z" fill="white" fill-opacity="0.5"/>
<path d="M98.1662 97.3106L100.425 105.203L99.5251 105.961L92.1287 102.4L92.9958 101.669L94.5991 102.459L97.806 99.7554L97.299 98.0416L98.1662 97.3106ZM98.0995 100.768L95.5471 102.919L99.2785 104.756L98.0995 100.768Z" fill="white" fill-opacity="0.5"/>
<path d="M104.109 89.9252L109.957 94.6054L107.804 97.2953C106.821 98.5234 105.421 98.7319 104.276 97.816C103.274 97.0136 103.073 95.8255 103.697 94.721L100.131 94.8958L100.96 93.8599L104.452 93.7085L105.516 92.3803L103.46 90.7355L104.109 89.9252ZM106.276 92.9887L104.758 94.885C104.156 95.6369 104.223 96.444 104.925 97.0056C105.618 97.5606 106.429 97.4555 107.03 96.7036L108.548 94.8073L106.276 92.9887Z" fill="white" fill-opacity="0.5"/>
<path d="M109.161 80.5588L115.815 83.9964L114.539 86.4681C113.512 88.4549 111.47 89.1219 109.483 88.0956C107.496 87.0692 106.858 85.0173 107.884 83.0305L109.161 80.5588ZM109.55 81.9278L108.749 83.4774C108.012 84.9033 108.514 86.4031 109.969 87.1544C111.423 87.9058 112.942 87.4376 113.673 86.0212L114.474 84.4716L109.55 81.9278Z" fill="white" fill-opacity="0.5"/>
<path d="M112.243 68.4317C112.641 66.1549 114.445 64.9058 116.742 65.307C118.998 65.7008 120.303 67.5579 119.906 69.8347C119.723 70.8782 119.155 71.7675 118.303 72.3572L117.734 71.5736C118.363 71.1404 118.803 70.4243 118.936 69.6654C119.227 68 118.259 66.6362 116.562 66.3399C114.823 66.0363 113.504 66.9356 113.213 68.601C113.077 69.381 113.177 70.0502 113.541 70.7004L115.217 70.993L115.598 68.8111L116.526 68.9731L115.977 72.1142L112.942 71.5841C112.263 70.6184 112.039 69.6017 112.243 68.4317Z" fill="white" fill-opacity="0.5"/>
<path d="M112.878 53.7958L120.45 56.9656L120.48 58.1422L113.077 61.6899L113.048 60.5561L114.667 59.7981L114.561 55.605L112.906 54.9297L112.878 53.7958ZM115.535 56.0086L115.619 59.3459L119.385 57.5811L115.535 56.0086Z" fill="white" fill-opacity="0.5"/>
<path d="M110.822 44.543L118.129 42.899L118.885 46.2604C119.231 47.7949 118.519 49.0189 117.089 49.3406C115.836 49.6225 114.783 49.0368 114.31 47.8601L112.219 50.7543L111.928 49.4598L113.991 46.6377L113.618 44.9778L111.05 45.5556L110.822 44.543ZM114.568 44.7641L115.101 47.1338C115.312 48.0733 115.984 48.5253 116.861 48.3281C117.727 48.1331 118.151 47.4345 117.94 46.495L117.407 44.1253L114.568 44.7641Z" fill="white" fill-opacity="0.5"/>
<path d="M106.647 34.7545L113.483 31.693L114.62 34.232C115.534 36.2729 114.783 38.286 112.742 39.2001C110.701 40.1142 108.698 39.3345 107.784 37.2935L106.647 34.7545ZM107.96 35.3038L108.673 36.8955C109.329 38.3603 110.815 38.9025 112.309 38.2334C113.803 37.5642 114.383 36.085 113.731 34.63L113.019 33.0382L107.96 35.3038Z" fill="white" fill-opacity="0.5"/>
<path d="M99.0964 24.7741C97.5676 23.0408 97.7199 20.8519 99.4693 19.3089C101.187 17.7942 103.452 17.9362 104.981 19.6695C105.681 20.4639 106.021 21.4631 105.948 22.4972L104.981 22.4517C105.036 21.6895 104.752 20.8984 104.242 20.3207C103.124 19.0528 101.455 18.9557 100.163 20.0953C98.8389 21.2631 98.7164 22.855 99.8347 24.1229C100.358 24.7167 100.944 25.0566 101.679 25.1785L102.955 24.0531L101.49 22.3921L102.196 21.7692L104.305 24.1605L101.994 26.1989C100.816 26.1251 99.8821 25.6648 99.0964 24.7741Z" fill="white" fill-opacity="0.5"/>
<path d="M88.0652 15.1325L95.2712 11.2004L96.2085 11.9123L94.3534 19.909L93.4502 19.223L93.8696 17.4857L90.5295 14.9486L88.9684 15.8186L88.0652 15.1325ZM91.4528 14.4406L94.1112 16.4599L95.0861 12.4169L91.4528 14.4406Z" fill="white" fill-opacity="0.5"/>
<path d="M79.549 10.9656L82.823 4.22906L85.9218 5.73512C87.3365 6.42267 87.849 7.74248 87.2082 9.06091C86.647 10.2157 85.5323 10.6733 84.3175 10.309L85.275 13.7485L84.0817 13.1685L83.1632 9.79555L81.633 9.05187L80.4824 11.4193L79.549 10.9656ZM82.0586 8.17612L84.2432 9.23785C85.1093 9.65879 85.8819 9.41561 86.2747 8.60723C86.6629 7.80847 86.3815 7.04117 85.5154 6.62022L83.3308 5.5585L82.0586 8.17612Z" fill="white" fill-opacity="0.5"/>
<path d="M69.2936 8.1157L71.1695 0.86441L73.8628 1.56116C76.0278 2.12125 77.1313 3.96508 76.5712 6.13011C76.0111 8.29513 74.1519 9.37254 71.9869 8.81245L69.2936 8.1157ZM70.5423 7.43297L72.2308 7.86979C73.7846 8.27176 75.1357 7.44973 75.5457 5.8648C75.9557 4.27988 75.1624 2.90313 73.6189 2.50383L71.9304 2.06702L70.5423 7.43297Z" fill="white" fill-opacity="0.5"/>
<path d="M56.7792 7.78836C54.4707 7.90107 52.8556 6.41587 52.7418 4.08605C52.6302 1.79897 54.155 0.117609 56.4634 0.00489535C57.5215 -0.0467652 58.5138 0.311865 59.2766 1.0138L58.6372 1.74135C58.0762 1.22239 57.2809 0.950553 56.5114 0.988124C54.8228 1.07057 53.7052 2.31426 53.7892 4.03491C53.8753 5.79831 55.0426 6.88758 56.7312 6.80513C57.522 6.76651 58.1528 6.52146 58.707 6.02304L58.624 4.32377L56.4118 4.43178L56.3658 3.4913L59.5506 3.3358L59.7009 6.41373C58.908 7.28804 57.9655 7.73044 56.7792 7.78836Z" fill="white" fill-opacity="0.5"/>
<path d="M42.365 10.4023L43.78 2.31617L44.9208 2.02676L50.0192 8.46068L48.9198 8.73957L47.8223 7.329L43.7567 8.36035L43.4644 10.1235L42.365 10.4023ZM43.9348 7.32168L47.1707 6.50081L44.6161 3.21899L43.9348 7.32168Z" fill="white" fill-opacity="0.5"/>
<path d="M33.8017 14.4673L30.5718 7.70953L33.6804 6.22377C35.0995 5.54548 36.4512 5.96677 37.0833 7.28936C37.6371 8.44784 37.3006 9.60484 36.2587 10.3281L39.5458 11.7219L38.3487 12.294L35.138 10.9112L33.6031 11.6449L34.7381 14.0197L33.8017 14.4673ZM33.1832 10.7664L35.3746 9.71893C36.2435 9.30366 36.5345 8.54787 36.1469 7.73694C35.7639 6.93566 34.9884 6.67777 34.1196 7.09305L31.9281 8.14047L33.1832 10.7664Z" fill="white" fill-opacity="0.5"/>
<path d="M25.1706 20.6959L20.6808 14.7008L22.9075 13.0331C24.6975 11.6926 26.8266 11.9829 28.1671 13.7729C29.5077 15.5629 29.1874 17.6877 27.3974 19.0282L25.1706 20.6959ZM25.4177 19.2943L26.8137 18.2488C28.0984 17.2867 28.3006 15.7183 27.3193 14.4079C26.3379 13.0975 24.7673 12.8568 23.4912 13.8125L22.0952 14.858L25.4177 19.2943Z" fill="white" fill-opacity="0.5"/>
</svg>
