<svg width="784" height="411" viewBox="0 0 784 411" fill="none" xmlns="http://www.w3.org/2000/svg">
<path d="M683.473 168.416L682.561 168.112C682.561 170.24 683.371 172.267 684.993 174.192C686.715 176.016 688.742 177.232 691.073 177.84C691.275 176.523 691.377 174.851 691.377 172.824C691.377 172.317 691.377 171.76 691.377 171.152C691.377 168.315 690.516 165.325 688.793 162.184C687.07 159.043 685.702 157.472 684.689 157.472C683.27 157.472 682.561 159.499 682.561 163.552C683.169 163.755 683.777 164.16 684.385 164.768C684.993 165.376 685.297 165.933 685.297 166.44C685.297 166.947 685.043 167.403 684.537 167.808C684.03 168.213 683.676 168.416 683.473 168.416ZM690.465 180.576C686.412 180.373 682.763 178.803 679.521 175.864C676.379 172.925 674.657 169.429 674.353 165.376C668.374 165.376 662.294 168.163 656.113 173.736C650.033 179.309 645.118 186.099 641.369 194.104C637.62 202.109 635.745 209.659 635.745 216.752C635.745 219.488 636.555 222.072 638.177 224.504C639.899 226.835 642.332 228 645.473 228C654.593 228 663.763 222.933 672.985 212.8C682.307 202.667 688.134 191.925 690.465 180.576ZM717.369 166.896C717.673 166.896 717.825 167.099 717.825 167.504C717.825 167.909 717.47 168.315 716.761 168.72C716.153 169.125 714.886 170.037 712.961 171.456C711.137 172.773 709.617 173.837 708.401 174.648C707.286 175.357 705.817 176.219 703.993 177.232C700.446 179.157 696.95 180.272 693.505 180.576C690.971 193.547 684.486 205.352 674.049 215.992C663.713 226.632 652.87 231.952 641.521 231.952C630.171 231.952 624.497 226.784 624.497 216.448C624.497 208.139 626.929 199.728 631.793 191.216C636.758 182.704 643.142 175.712 650.945 170.24C658.747 164.768 666.55 162.032 674.353 162.032C674.556 159.499 675.315 157.016 676.633 154.584C677.95 152.051 679.825 150.784 682.257 150.784C686.006 150.784 688.945 152.659 691.073 156.408C693.302 160.157 694.417 164.971 694.417 170.848C694.417 172.469 694.214 174.901 693.809 178.144C698.369 178.144 705.665 174.699 715.697 167.808C716.609 167.2 717.166 166.896 717.369 166.896Z" fill="white"/>
<path d="M584.669 168.72C583.757 169.328 583.149 169.632 582.845 169.632C582.643 169.632 582.541 169.429 582.541 169.024C582.541 168.619 582.845 168.213 583.453 167.808C589.939 163.349 595.512 161.12 600.173 161.12C607.064 161.12 610.509 164.261 610.509 170.544C610.509 172.773 608.787 176.928 605.341 183.008C601.896 188.987 598.451 195.269 595.005 201.856C591.56 208.443 589.837 213.611 589.837 217.36C589.837 222.629 593.384 225.264 600.477 225.264C603.923 225.264 608.432 223.643 614.005 220.4C619.68 217.157 624.645 213.763 628.901 210.216C633.157 206.669 636.907 203.123 640.149 199.576C643.392 196.029 645.368 193.648 646.077 192.432C646.888 191.216 647.496 190.608 647.901 190.608C648.307 190.608 648.509 190.76 648.509 191.064C648.509 191.368 648.408 191.723 648.205 192.128C643.24 198.816 637.768 204.795 631.789 210.064C625.304 216.245 618.211 221.211 610.509 224.96C602.808 228.608 596.677 230.432 592.117 230.432C587.557 230.432 584.011 229.419 581.477 227.392C578.944 225.365 577.677 222.325 577.677 218.272C577.677 214.219 579.552 208.747 583.301 201.856C587.051 194.965 590.8 188.581 594.549 182.704C598.299 176.725 600.173 172.773 600.173 170.848C600.173 168.821 599.717 167.251 598.805 166.136C597.995 165.021 596.931 164.464 595.613 164.464C592.573 164.464 588.925 165.883 584.669 168.72ZM618.717 127.984C618.717 125.755 619.731 123.424 621.757 120.992C623.581 118.56 625.405 117.344 627.229 117.344C629.053 117.344 630.421 117.901 631.333 119.016C632.245 120.029 632.701 121.499 632.701 123.424C632.701 125.349 631.789 127.528 629.965 129.96C628.141 132.291 626.013 133.456 623.581 133.456C620.339 133.456 618.717 131.632 618.717 127.984Z" fill="white"/>
<path d="M570.45 130.72C578.76 123.829 586.005 117.597 592.186 112.024C598.469 106.349 605.106 99.712 612.098 92.112C619.192 84.512 625.018 77.368 629.578 70.68C634.138 63.8906 637.938 56.544 640.978 48.64C644.018 40.6346 645.538 32.9333 645.538 25.536C645.538 23.8133 645.184 22.3946 644.474 21.28C643.765 20.064 642.802 19.456 641.586 19.456C637.026 19.456 630.237 25.992 621.218 39.064C612.2 52.0346 602.674 68.1973 592.642 87.552L570.45 130.72ZM553.122 147.44C542.888 154.837 535.896 160.005 532.146 162.944C526.472 167.403 523.432 169.632 523.026 169.632C522.621 169.632 522.418 169.429 522.418 169.024C522.418 168.619 522.722 168.213 523.33 167.808C535.693 158.891 546.333 150.784 555.25 143.488L581.698 93.328C582.813 91.2 585.042 86.792 588.386 80.104C591.832 73.3146 594.264 68.552 595.682 65.816C597.101 63.08 599.482 58.976 602.826 53.504C606.17 48.032 609.16 43.7253 611.794 40.584C618.888 31.8693 626.184 25.0293 633.682 20.064C640.674 14.7946 646.957 12.16 652.53 12.16C654.354 12.16 655.672 12.92 656.482 14.44C657.293 15.96 657.698 17.4293 657.698 18.848C657.698 35.6693 650.149 53.4533 635.05 72.2C629.984 78.4826 625.17 84.056 620.61 88.92C616.152 93.784 610.477 99.3067 603.586 105.488C595.074 113.189 583.218 123.221 568.018 135.584L547.346 176.016C543.698 183.312 540.861 188.987 538.834 193.04C536.909 196.992 534.933 201.603 532.906 206.872C530.981 212.141 530.018 216.093 530.018 218.728C530.018 221.363 530.829 223.643 532.45 225.568C534.072 227.392 536.2 228.304 538.834 228.304C545.218 228.304 552.312 226.227 560.114 222.072C567.917 217.917 575.112 213.003 581.698 207.328C588.285 201.552 593.149 196.283 596.29 191.52C596.696 190.912 597.101 190.608 597.506 190.608C597.912 190.608 598.114 190.76 598.114 191.064C598.114 191.368 598.013 191.723 597.81 192.128C592.338 199.424 586.866 205.453 581.394 210.216C576.024 214.979 570.298 219.133 564.218 222.68C558.138 226.227 552.261 228.76 546.586 230.28C541.013 231.8 536.149 232.56 531.994 232.56C527.84 232.56 524.546 231.445 522.114 229.216C519.682 227.088 518.466 224.403 518.466 221.16C518.466 217.917 518.973 214.776 519.986 211.736C521.101 208.595 522.165 205.96 523.178 203.832C524.293 201.704 526.472 197.6 529.714 191.52L553.122 147.44Z" fill="white"/>
<path d="M497.166 168.416L496.254 168.112C496.254 170.24 497.065 172.267 498.686 174.192C500.409 176.016 502.435 177.232 504.766 177.84C504.969 176.523 505.07 174.851 505.07 172.824C505.07 172.317 505.07 171.76 505.07 171.152C505.07 168.315 504.209 165.325 502.486 162.184C500.763 159.043 499.395 157.472 498.382 157.472C496.963 157.472 496.254 159.499 496.254 163.552C496.862 163.755 497.47 164.16 498.078 164.768C498.686 165.376 498.99 165.933 498.99 166.44C498.99 166.947 498.737 167.403 498.23 167.808C497.723 168.213 497.369 168.416 497.166 168.416ZM504.158 180.576C500.105 180.373 496.457 178.803 493.214 175.864C490.073 172.925 488.35 169.429 488.046 165.376C482.067 165.376 475.987 168.163 469.806 173.736C463.726 179.309 458.811 186.099 455.062 194.104C451.313 202.109 449.438 209.659 449.438 216.752C449.438 219.488 450.249 222.072 451.87 224.504C453.593 226.835 456.025 228 459.166 228C468.286 228 477.457 222.933 486.678 212.8C496.001 202.667 501.827 191.925 504.158 180.576ZM531.062 166.896C531.366 166.896 531.518 167.099 531.518 167.504C531.518 167.909 531.163 168.315 530.454 168.72C529.846 169.125 528.579 170.037 526.654 171.456C524.83 172.773 523.31 173.837 522.094 174.648C520.979 175.357 519.51 176.219 517.686 177.232C514.139 179.157 510.643 180.272 507.198 180.576C504.665 193.547 498.179 205.352 487.742 215.992C477.406 226.632 466.563 231.952 455.214 231.952C443.865 231.952 438.19 226.784 438.19 216.448C438.19 208.139 440.622 199.728 445.486 191.216C450.451 182.704 456.835 175.712 464.638 170.24C472.441 164.768 480.243 162.032 488.046 162.032C488.249 159.499 489.009 157.016 490.326 154.584C491.643 152.051 493.518 150.784 495.95 150.784C499.699 150.784 502.638 152.659 504.766 156.408C506.995 160.157 508.11 164.971 508.11 170.848C508.11 172.469 507.907 174.901 507.502 178.144C512.062 178.144 519.358 174.699 529.39 167.808C530.302 167.2 530.859 166.896 531.062 166.896Z" fill="white"/>
<path d="M385.539 219.184C333.251 257.691 296.568 289.408 275.491 314.336C268.701 322.443 263.685 328.928 260.443 333.792C257.2 338.757 254.667 343.621 252.843 348.384C251.019 353.248 250.005 356.643 249.803 358.568C249.499 360.595 249.347 362.875 249.347 365.408C249.347 368.043 249.6 371.235 250.107 374.984C250.613 378.733 251.424 382.837 252.539 387.296C253.552 391.856 255.224 395.656 257.555 398.696C259.885 401.837 262.621 403.408 265.763 403.408C270.12 403.408 276.504 400.216 284.915 393.832C293.224 387.549 299.304 381.317 303.155 375.136C311.565 362.064 325.296 336.579 344.347 298.68C363.296 260.781 377.027 234.283 385.539 219.184ZM453.939 167.808C454.851 167.2 455.408 166.896 455.611 166.896C455.915 166.896 456.067 167.099 456.067 167.504C456.067 167.909 455.763 168.315 455.155 168.72C448.467 172.875 431.341 185.035 403.779 205.2C345.613 313.221 312.883 371.589 305.587 380.304C298.291 389.12 289.677 396.416 279.747 402.192C269.715 408.069 262.824 411.008 259.075 411.008C255.224 411.008 251.981 409.387 249.347 406.144C246.611 403.104 244.584 399.051 243.267 393.984C240.835 384.763 239.619 375.035 239.619 364.8C239.619 353.653 244.483 341.493 254.211 328.32C259.075 321.835 264.243 315.501 269.715 309.32C275.085 303.24 281.723 296.704 289.627 289.712C297.429 282.72 304.523 276.539 310.907 271.168C317.189 265.797 324.739 259.768 333.555 253.08C342.269 246.493 349.261 241.275 354.531 237.424C359.699 233.675 366.184 229.064 373.987 223.592C381.688 218.019 386.653 214.421 388.883 212.8C397.091 195.675 411.987 166.795 433.571 126.16C455.155 85.424 471.165 57.2533 481.603 41.648C492.04 26.0427 501.312 15.2 509.419 9.11999C517.525 3.04 526.291 0 535.715 0C538.957 0 541.693 1.11467 543.923 3.34399C547.368 6.992 549.091 11.0453 549.091 15.504C549.091 19.9627 548.584 23.6107 547.571 26.448C546.557 29.184 544.835 32.528 542.403 36.48C541.592 38.1013 539.616 39.6213 536.475 41.04C534.752 41.7493 533.587 42.104 532.979 42.104C532.675 42.104 532.523 42.0027 532.523 41.8C532.523 41.6987 532.573 41.5467 532.675 41.344C535.005 37.5947 536.576 34.4027 537.387 31.768C538.299 29.032 538.755 25.6373 538.755 21.584C538.755 17.5307 537.539 13.9333 535.107 10.792C532.675 7.65066 529.787 6.07999 526.443 6.07999C523.2 6.07999 520.059 6.73866 517.019 8.056C514.08 9.37333 510.787 11.9573 507.139 15.808C503.592 19.5573 500.096 23.864 496.651 28.728C493.307 33.4907 489.101 40.3813 484.035 49.4C474.408 66.3227 462.856 88.0587 449.379 114.608L406.211 200.336L453.939 167.808Z" fill="white"/>
<path d="M328.697 169.632C328.494 169.632 328.393 169.429 328.393 169.024C328.393 168.619 328.646 168.213 329.153 167.808C330.673 166.795 332.193 165.731 333.713 164.616C335.334 163.501 341.667 162.032 352.713 160.208L377.337 114.608C378.553 112.075 380.275 109.795 382.505 107.768C384.531 105.64 386.558 104.576 388.585 104.576C388.686 104.576 388.838 104.576 389.041 104.576C390.763 104.576 391.625 104.981 391.625 105.792C391.625 106.603 389.091 111.315 384.025 119.928C378.958 128.541 371.966 141.461 363.049 158.688L391.625 154.128C392.233 154.128 392.537 154.229 392.537 154.432C392.537 155.04 391.777 155.8 390.257 156.712C388.838 157.624 387.723 158.08 386.913 158.08C386.102 158.08 377.539 159.397 361.225 162.032L346.633 192.432C341.161 204.592 338.425 212.496 338.425 216.144C338.425 219.792 339.489 222.781 341.617 225.112C343.745 227.443 346.43 228.608 349.673 228.608C357.577 228.608 364.062 227.189 369.129 224.352C374.297 221.515 379.667 217.613 385.241 212.648C390.915 207.683 395.475 203.275 398.921 199.424C402.467 195.472 404.545 193.04 405.153 192.128C405.862 191.115 406.419 190.608 406.825 190.608C407.23 190.608 407.433 190.76 407.433 191.064C407.433 191.368 407.331 191.723 407.129 192.128C402.265 198.512 397.198 204.237 391.929 209.304C386.659 214.269 382.049 218.221 378.097 221.16C374.246 224.099 369.382 226.632 363.505 228.76C357.729 230.888 351.851 231.952 345.873 231.952C339.995 231.952 335.334 230.635 331.889 228C328.545 225.365 326.873 221.211 326.873 215.536C326.873 209.861 329.811 201.856 335.689 191.52L350.281 164.464C337.513 166.997 330.774 168.517 330.065 169.024C329.457 169.429 329.001 169.632 328.697 169.632Z" fill="white"/>
<path d="M284.855 161.12C287.794 161.12 290.023 161.931 291.543 163.552C293.165 165.173 293.975 166.845 293.975 168.568C293.975 170.291 293.57 172.165 292.759 174.192C291.949 176.219 291.087 178.093 290.175 179.816C289.263 181.539 288.25 183.363 287.135 185.288C286.122 187.112 285.565 188.176 285.463 188.48C291.543 181.488 299.042 174.8 307.959 168.416C314.343 163.957 322.653 159.701 332.887 155.648C334.103 155.243 334.863 155.04 335.167 155.04C335.471 155.04 335.623 155.192 335.623 155.496C335.623 155.8 335.522 156.053 335.319 156.256C335.218 156.357 335.066 156.459 334.863 156.56C334.661 156.661 334.053 156.965 333.039 157.472C332.127 157.979 330.05 159.651 326.807 162.488C323.565 165.224 321.943 167.656 321.943 169.784C321.943 171.912 322.855 172.976 324.679 172.976C327.01 172.976 330.557 171.253 335.319 167.808C336.231 167.2 336.789 166.896 336.991 166.896C337.295 166.896 337.447 167.099 337.447 167.504C337.447 167.909 337.143 168.315 336.535 168.72C332.381 171.76 329.087 173.837 326.655 174.952C324.325 176.067 321.994 176.624 319.663 176.624C317.333 176.624 315.458 176.219 314.039 175.408C312.621 174.597 311.911 173.432 311.911 171.912C311.911 170.291 312.519 168.72 313.735 167.2C309.074 169.835 303.602 174.192 297.319 180.272C291.037 186.251 284.754 193.445 278.471 201.856C269.149 219.083 263.879 228.405 262.663 229.824C261.447 231.243 260.535 231.952 259.927 231.952C259.421 231.952 259.015 231.8 258.711 231.496C258.407 231.293 258.002 230.787 257.495 229.976C257.09 229.165 256.482 228.203 255.671 227.088C254.861 225.872 254.455 224.909 254.455 224.2C254.455 223.389 255.165 221.92 256.583 219.792C258.002 217.563 259.623 215.435 261.447 213.408C263.373 211.28 264.994 209.355 266.311 207.632C274.621 192.027 279.687 182.349 281.511 178.6C283.335 174.749 284.247 171.963 284.247 170.24C284.247 168.416 283.791 167.048 282.879 166.136C282.069 165.224 280.65 164.768 278.623 164.768C276.597 164.768 273.607 166.085 269.655 168.72C268.743 169.328 268.135 169.632 267.831 169.632C267.629 169.632 267.527 169.429 267.527 169.024C267.527 168.619 267.831 168.213 268.439 167.808C274.925 163.349 280.397 161.12 284.855 161.12Z" fill="white"/>
<path d="M242.275 168.416L241.363 168.112C241.363 170.24 242.174 172.267 243.795 174.192C245.518 176.016 247.544 177.232 249.875 177.84C250.078 176.523 250.179 174.851 250.179 172.824C250.179 172.317 250.179 171.76 250.179 171.152C250.179 168.315 249.318 165.325 247.595 162.184C245.872 159.043 244.504 157.472 243.491 157.472C242.072 157.472 241.363 159.499 241.363 163.552C241.971 163.755 242.579 164.16 243.187 164.768C243.795 165.376 244.099 165.933 244.099 166.44C244.099 166.947 243.846 167.403 243.339 167.808C242.832 168.213 242.478 168.416 242.275 168.416ZM249.267 180.576C245.214 180.373 241.566 178.803 238.323 175.864C235.182 172.925 233.459 169.429 233.155 165.376C227.176 165.376 221.096 168.163 214.915 173.736C208.835 179.309 203.92 186.099 200.171 194.104C196.422 202.109 194.547 209.659 194.547 216.752C194.547 219.488 195.358 222.072 196.979 224.504C198.702 226.835 201.134 228 204.275 228C213.395 228 222.566 222.933 231.787 212.8C241.11 202.667 246.936 191.925 249.267 180.576ZM276.171 166.896C276.475 166.896 276.627 167.099 276.627 167.504C276.627 167.909 276.272 168.315 275.563 168.72C274.955 169.125 273.688 170.037 271.763 171.456C269.939 172.773 268.419 173.837 267.203 174.648C266.088 175.357 264.619 176.219 262.795 177.232C259.248 179.157 255.752 180.272 252.307 180.576C249.774 193.547 243.288 205.352 232.851 215.992C222.515 226.632 211.672 231.952 200.323 231.952C188.974 231.952 183.299 226.784 183.299 216.448C183.299 208.139 185.731 199.728 190.595 191.216C195.56 182.704 201.944 175.712 209.747 170.24C217.55 164.768 225.352 162.032 233.155 162.032C233.358 159.499 234.118 157.016 235.435 154.584C236.752 152.051 238.627 150.784 241.059 150.784C244.808 150.784 247.747 152.659 249.875 156.408C252.104 160.157 253.219 164.971 253.219 170.848C253.219 172.469 253.016 174.901 252.611 178.144C257.171 178.144 264.467 174.699 274.499 167.808C275.411 167.2 275.968 166.896 276.171 166.896Z" fill="white"/>
<path d="M205.516 191.52C205.921 190.912 206.327 190.608 206.732 190.608C207.137 190.608 207.34 190.76 207.34 191.064C207.34 191.469 206.833 192.381 205.82 193.8C204.807 195.117 202.071 198.107 197.612 202.768C193.255 207.328 188.644 212.091 183.78 217.056C179.017 222.021 171.772 229.469 162.044 239.4C152.417 249.331 144.969 256.981 139.7 262.352C134.329 267.824 128.807 273.6 123.132 279.68C112.897 290.421 106.057 298.224 102.612 303.088C99.268 308.053 93.5427 317.427 85.436 331.208C77.3293 344.989 69.932 357.403 63.244 368.448C56.556 379.595 52.756 385.168 51.844 385.168C50.8307 385.168 49.7667 384.408 48.652 382.888C47.436 381.469 46.828 380.304 46.828 379.392C46.828 375.136 49.868 368.397 55.948 359.176C62.028 349.955 67.6013 342.304 72.668 336.224C82.9027 323.963 89.996 314.083 93.948 306.584C98.0013 299.085 108.388 280.896 125.108 252.016C141.929 223.136 152.316 204.896 156.268 197.296C152.924 202.363 146.743 208.645 137.724 216.144C133.265 219.792 128.351 222.933 122.98 225.568C117.609 228.203 112.745 229.52 108.388 229.52C104.132 229.52 100.636 228.152 97.9 225.416C95.2653 222.579 93.948 218.88 93.948 214.32C93.948 206.72 96.6333 198.563 102.004 189.848C107.375 181.032 114.012 173.635 121.916 167.656C129.82 161.677 137.217 158.688 144.108 158.688C148.567 158.688 151.911 159.904 154.14 162.336C156.369 164.768 157.484 167.757 157.484 171.304C157.484 174.749 156.876 178.144 155.66 181.488C155.255 182.704 154.444 183.312 153.228 183.312C152.012 183.312 151.404 182.805 151.404 181.792C151.404 181.184 152.012 179.411 153.228 176.472C154.444 173.533 155.052 171.101 155.052 169.176C155.052 167.149 154.089 165.477 152.164 164.16C150.239 162.741 148.06 162.032 145.628 162.032C140.865 162.032 135.292 164.717 128.908 170.088C122.625 175.459 117.103 182.4 112.34 190.912C107.577 199.424 105.196 207.531 105.196 215.232C105.196 217.563 106.057 219.64 107.78 221.464C109.503 223.187 111.681 224.048 114.316 224.048C120.801 224.048 128.3 220.501 136.812 213.408C145.425 206.315 152.113 197.803 156.876 187.872C157.585 186.453 158.295 184.579 159.004 182.248C159.815 179.816 160.321 178.549 160.524 178.448C162.145 177.637 164.172 177.232 166.604 177.232C169.137 177.232 171.113 177.536 172.532 178.144C174.052 178.752 174.812 179.512 174.812 180.424C174.812 181.235 173.697 183.059 171.468 185.896C163.361 196.435 158.193 203.68 155.964 207.632L111.276 285.76C120.295 276.133 127.489 268.584 132.86 263.112C138.231 257.741 157.889 238.437 191.836 205.2L205.516 191.52Z" fill="white"/>
<path d="M202.832 152.404L17.418 295.384L166.69 212.904L168.142 215.529L1.6416 307.529L0 305.029L193.356 155.921L50.9443 207.665L49.9199 204.845L201.403 149.806L202.832 152.404Z" fill="#FF0077"/>
<path d="M778.268 274.156C778.428 273.916 778.608 273.796 778.808 273.796C779.048 273.796 779.168 273.916 779.168 274.156C779.168 274.396 779.048 274.636 778.808 274.876C778.568 275.116 778.388 275.856 778.268 277.096C778.188 278.296 777.888 279.776 777.368 281.536C776.848 283.256 775.948 284.816 774.668 286.216C774.668 286.296 774.748 286.336 774.908 286.336C775.188 286.336 776.208 285.856 777.968 284.896L778.808 284.476C780.328 283.636 781.948 282.616 783.668 281.416L783.788 282.316C777.548 286.356 772.768 288.376 769.448 288.376C768.128 288.376 767.168 288.096 766.568 287.536C765.928 286.976 765.608 286.356 765.608 285.676C765.608 284.996 765.768 284.456 766.088 284.056C766.408 283.616 766.808 283.396 767.288 283.396C767.888 283.396 768.188 283.716 768.188 284.356C768.188 284.756 767.868 285.116 767.228 285.436C767.028 285.556 766.928 285.756 766.928 286.036C766.928 286.316 767.168 286.636 767.648 286.996C768.088 287.396 768.568 287.596 769.088 287.596C770.848 287.596 772.348 286.496 773.588 284.296C774.868 282.056 775.688 279.836 776.048 277.636V277.456C772.168 280.096 769.548 281.816 768.188 282.616L768.008 281.776C774.528 277.576 777.948 275.036 778.268 274.156Z" fill="#FF0077"/>
<path d="M755.619 275.596C755.819 275.436 756.359 275.396 757.239 275.476C757.679 275.556 757.899 275.656 757.899 275.776C757.899 275.856 757.799 276.016 757.599 276.256C757.399 276.496 756.439 277.456 754.719 279.136C751.159 282.616 749.379 284.796 749.379 285.676C749.379 285.876 749.499 285.976 749.739 285.976C751.099 285.976 756.039 283.096 764.559 277.336L766.179 276.016C766.379 275.856 766.759 275.796 767.319 275.836C767.879 275.876 768.159 276.076 768.159 276.436C768.159 276.596 768.099 276.736 767.979 276.856C762.379 281.896 759.579 284.936 759.579 285.976C759.579 286.416 759.899 286.636 760.539 286.636C761.179 286.636 762.039 286.396 763.119 285.916C764.199 285.436 765.159 284.956 765.999 284.476C766.839 283.956 767.839 283.336 768.999 282.616C770.199 281.856 770.839 281.456 770.919 281.416L771.039 282.316C769.199 283.516 767.099 284.716 764.739 285.916C762.379 287.116 760.579 287.716 759.339 287.716C758.139 287.716 757.539 287.216 757.539 286.216C757.539 284.816 758.619 282.996 760.779 280.756C754.499 284.836 750.619 286.876 749.139 286.876C748.259 286.876 747.819 286.356 747.819 285.316C747.819 283.116 750.419 279.876 755.619 275.596Z" fill="#FF0077"/>
<path d="M754.181 270.376C754.181 270.936 753.861 271.476 753.221 271.996C752.581 272.516 751.981 272.776 751.421 272.776C750.901 272.776 750.641 272.556 750.641 272.116C750.641 271.676 750.961 271.176 751.601 270.616C752.241 270.016 752.821 269.716 753.341 269.716C753.901 269.716 754.181 269.936 754.181 270.376ZM749.081 276.856C743.681 281.736 740.981 284.796 740.981 286.036C740.981 286.436 741.261 286.636 741.821 286.636C742.341 286.636 743.141 286.396 744.221 285.916C745.301 285.436 746.261 284.956 747.101 284.476C747.941 283.956 748.941 283.336 750.101 282.616C751.301 281.856 751.941 281.456 752.021 281.416L752.141 282.316C750.301 283.516 748.201 284.716 745.841 285.916C743.481 287.116 741.701 287.716 740.501 287.716C739.261 287.716 738.641 287.216 738.641 286.216C738.641 285.376 739.361 284.116 740.801 282.436C742.241 280.716 743.681 279.216 745.121 277.936L747.281 276.016C747.481 275.856 747.861 275.796 748.421 275.836C748.981 275.876 749.261 276.076 749.261 276.436C749.261 276.596 749.201 276.736 749.081 276.856Z" fill="#FF0077"/>
<path d="M729.29 275.416C730.13 275.416 730.55 275.876 730.55 276.796C730.55 277.676 729.91 278.976 728.63 280.696C733.19 277.536 736.85 275.956 739.61 275.956C740.69 275.956 741.23 276.416 741.23 277.336C741.23 278.256 740.83 279.216 740.03 280.216C739.23 281.176 738.35 282.016 737.39 282.736C734.83 284.576 733.55 285.736 733.55 286.216C733.55 286.496 733.77 286.636 734.21 286.636C734.69 286.636 735.47 286.396 736.55 285.916C737.63 285.436 738.59 284.956 739.43 284.476C740.27 283.956 741.27 283.336 742.43 282.616C743.63 281.856 744.27 281.456 744.35 281.416L744.47 282.316C739.07 285.916 735.29 287.716 733.13 287.716C732.09 287.716 731.57 287.216 731.57 286.216C731.57 285.536 731.99 284.736 732.83 283.816C733.71 282.856 734.65 281.976 735.65 281.176C738.41 279.096 739.79 277.716 739.79 277.036C739.79 276.836 739.57 276.736 739.13 276.736C737.65 276.736 735.45 277.536 732.53 279.136C729.61 280.736 726.37 283.336 722.81 286.936C722.57 287.176 722.11 287.296 721.43 287.296C720.79 287.296 720.47 287.116 720.47 286.756C720.47 286.636 721.85 285.156 724.61 282.316C727.37 279.476 728.75 277.636 728.75 276.796C728.75 276.596 728.61 276.496 728.33 276.496C728.09 276.496 727.55 276.756 726.71 277.276C725.91 277.796 724.65 278.636 722.93 279.796C721.25 280.916 719.81 281.856 718.61 282.616L718.43 281.776C719.03 281.376 719.85 280.816 720.89 280.096C721.93 279.376 722.79 278.796 723.47 278.356C724.15 277.876 724.89 277.376 725.69 276.856C727.25 275.896 728.45 275.416 729.29 275.416Z" fill="#FF0077"/>
<path d="M719.373 276.136C719.373 275.816 719.053 275.656 718.413 275.656C717.773 275.656 716.473 276.276 714.513 277.516C712.553 278.716 710.893 280.016 709.533 281.416C712.213 280.976 714.513 280.176 716.433 279.016C718.393 277.816 719.373 276.856 719.373 276.136ZM707.613 284.596C707.613 285.756 708.413 286.336 710.013 286.336C713.053 286.336 716.833 284.696 721.353 281.416L721.473 282.316C716.753 285.636 712.713 287.296 709.353 287.296C706.953 287.296 705.753 286.296 705.753 284.296C705.753 282.296 707.233 280.216 710.193 278.056C713.193 275.896 716.273 274.816 719.433 274.816C720.433 274.816 720.933 275.116 720.933 275.716C720.933 276.676 719.813 277.836 717.573 279.196C715.373 280.516 712.473 281.496 708.873 282.136C708.033 283.096 707.613 283.916 707.613 284.596Z" fill="#FF0077"/>
<path d="M690.376 286.096C691.776 286.096 693.676 285.396 696.076 283.996C698.516 282.556 700.616 281.116 702.376 279.676C704.136 278.196 705.016 277.336 705.016 277.096C705.016 276.816 704.716 276.596 704.116 276.436C703.556 276.276 702.996 276.196 702.436 276.196C700.796 276.196 698.936 276.836 696.856 278.116C694.816 279.396 693.116 280.776 691.756 282.256C690.436 283.736 689.776 284.836 689.776 285.556C689.776 285.916 689.976 286.096 690.376 286.096ZM672.316 302.836C671.236 303.676 670.456 304.476 669.976 305.236C669.496 306.036 669.256 306.876 669.256 307.756C669.256 308.636 669.696 309.076 670.576 309.076C672.736 309.076 679.076 303.716 689.596 292.996C682.516 296.396 678.136 298.676 676.456 299.836C674.736 300.996 673.356 301.996 672.316 302.836ZM706.156 276.256C706.796 275.616 707.216 275.296 707.416 275.296C707.656 275.296 707.996 275.356 708.436 275.476C708.916 275.596 709.156 275.736 709.156 275.896C709.156 276.016 708.996 276.216 708.676 276.496C708.356 276.776 704.176 280.936 696.136 288.976C701.416 286.336 705.856 283.816 709.456 281.416L709.576 282.316C707.776 283.356 706.496 284.136 705.736 284.656C703.576 285.976 699.816 287.976 694.456 290.656C688.656 296.496 683.676 301.156 679.516 304.636C675.316 308.156 672.196 309.916 670.156 309.916C668.996 309.916 668.416 309.256 668.416 307.936C668.416 306.616 669.016 305.256 670.216 303.856C671.416 302.496 673.196 301.096 675.556 299.656C679.276 297.416 684.256 294.776 690.496 291.736C690.776 291.616 690.996 291.516 691.156 291.436C691.836 290.756 692.916 289.616 694.396 288.016C695.916 286.416 696.916 285.376 697.396 284.896C697.876 284.416 698.236 284.056 698.476 283.816C698.996 283.256 699.456 282.796 699.856 282.436C695.416 285.476 692.016 287.016 689.656 287.056C688.736 287.056 688.276 286.516 688.276 285.436C688.276 283.396 689.576 281.216 692.176 278.896C694.816 276.536 698.216 275.356 702.376 275.356C703.776 275.356 705.036 275.656 706.156 276.256Z" fill="#FF0077"/>
<path d="M680.575 274.156C680.735 273.916 680.915 273.796 681.115 273.796C681.355 273.796 681.475 273.916 681.475 274.156C681.475 274.396 681.355 274.636 681.115 274.876C680.875 275.116 680.695 275.856 680.575 277.096C680.495 278.296 680.195 279.776 679.675 281.536C679.155 283.256 678.255 284.816 676.975 286.216C676.975 286.296 677.055 286.336 677.215 286.336C677.495 286.336 678.515 285.856 680.275 284.896L681.115 284.476C682.635 283.636 684.255 282.616 685.975 281.416L686.095 282.316C679.855 286.356 675.075 288.376 671.755 288.376C670.435 288.376 669.475 288.096 668.875 287.536C668.235 286.976 667.915 286.356 667.915 285.676C667.915 284.996 668.075 284.456 668.395 284.056C668.715 283.616 669.115 283.396 669.595 283.396C670.195 283.396 670.495 283.716 670.495 284.356C670.495 284.756 670.175 285.116 669.535 285.436C669.335 285.556 669.235 285.756 669.235 286.036C669.235 286.316 669.475 286.636 669.955 286.996C670.395 287.396 670.875 287.596 671.395 287.596C673.155 287.596 674.655 286.496 675.895 284.296C677.175 282.056 677.995 279.836 678.355 277.636V277.456C674.475 280.096 671.855 281.816 670.495 282.616L670.315 281.776C676.835 277.576 680.255 275.036 680.575 274.156Z" fill="#FF0077"/>
<path d="M675.417 270.376C675.417 270.936 675.097 271.476 674.457 271.996C673.817 272.516 673.217 272.776 672.657 272.776C672.137 272.776 671.877 272.556 671.877 272.116C671.877 271.676 672.197 271.176 672.837 270.616C673.477 270.016 674.057 269.716 674.577 269.716C675.137 269.716 675.417 269.936 675.417 270.376ZM670.317 276.856C664.917 281.736 662.217 284.796 662.217 286.036C662.217 286.436 662.497 286.636 663.057 286.636C663.577 286.636 664.377 286.396 665.457 285.916C666.537 285.436 667.497 284.956 668.337 284.476C669.177 283.956 670.177 283.336 671.337 282.616C672.537 281.856 673.177 281.456 673.257 281.416L673.377 282.316C671.537 283.516 669.437 284.716 667.077 285.916C664.717 287.116 662.937 287.716 661.737 287.716C660.497 287.716 659.877 287.216 659.877 286.216C659.877 285.376 660.597 284.116 662.037 282.436C663.477 280.716 664.917 279.216 666.357 277.936L668.517 276.016C668.717 275.856 669.097 275.796 669.657 275.836C670.217 275.876 670.497 276.076 670.497 276.436C670.497 276.596 670.437 276.736 670.317 276.856Z" fill="#FF0077"/>
<path d="M653.557 274.156C653.717 273.916 653.897 273.796 654.097 273.796C654.337 273.796 654.457 273.916 654.457 274.156C654.457 274.396 654.337 274.636 654.097 274.876C653.857 275.116 653.677 275.856 653.557 277.096C653.477 278.296 653.177 279.776 652.657 281.536C652.137 283.256 651.237 284.816 649.957 286.216C649.957 286.296 650.037 286.336 650.197 286.336C650.477 286.336 651.497 285.856 653.257 284.896L654.097 284.476C655.617 283.636 657.237 282.616 658.957 281.416L659.077 282.316C652.837 286.356 648.057 288.376 644.737 288.376C643.417 288.376 642.457 288.096 641.857 287.536C641.217 286.976 640.897 286.356 640.897 285.676C640.897 284.996 641.057 284.456 641.377 284.056C641.697 283.616 642.097 283.396 642.577 283.396C643.177 283.396 643.477 283.716 643.477 284.356C643.477 284.756 643.157 285.116 642.517 285.436C642.317 285.556 642.217 285.756 642.217 286.036C642.217 286.316 642.457 286.636 642.937 286.996C643.377 287.396 643.857 287.596 644.377 287.596C646.137 287.596 647.637 286.496 648.877 284.296C650.157 282.056 650.977 279.836 651.337 277.636V277.456C647.457 280.096 644.837 281.816 643.477 282.616L643.297 281.776C649.817 277.576 653.237 275.036 653.557 274.156Z" fill="#FF0077"/>
<path d="M640.839 274.156C640.999 273.916 641.179 273.796 641.379 273.796C641.619 273.796 641.739 273.916 641.739 274.156C641.739 274.396 641.619 274.636 641.379 274.876C641.139 275.116 640.959 275.856 640.839 277.096C640.759 278.296 640.459 279.776 639.939 281.536C639.419 283.256 638.519 284.816 637.239 286.216C637.239 286.296 637.319 286.336 637.479 286.336C637.759 286.336 638.779 285.856 640.539 284.896L641.379 284.476C642.899 283.636 644.519 282.616 646.239 281.416L646.359 282.316C640.119 286.356 635.339 288.376 632.019 288.376C630.699 288.376 629.739 288.096 629.139 287.536C628.499 286.976 628.179 286.356 628.179 285.676C628.179 284.996 628.339 284.456 628.659 284.056C628.979 283.616 629.379 283.396 629.859 283.396C630.459 283.396 630.759 283.716 630.759 284.356C630.759 284.756 630.439 285.116 629.799 285.436C629.599 285.556 629.499 285.756 629.499 286.036C629.499 286.316 629.739 286.636 630.219 286.996C630.659 287.396 631.139 287.596 631.659 287.596C633.419 287.596 634.919 286.496 636.159 284.296C637.439 282.056 638.259 279.836 638.619 277.636V277.456C634.739 280.096 632.119 281.816 630.759 282.616L630.579 281.776C637.099 277.576 640.519 275.036 640.839 274.156Z" fill="#FF0077"/>
<path d="M631.523 276.136C631.523 275.816 631.203 275.656 630.563 275.656C629.923 275.656 628.623 276.276 626.663 277.516C624.703 278.716 623.043 280.016 621.683 281.416C624.363 280.976 626.663 280.176 628.583 279.016C630.543 277.816 631.523 276.856 631.523 276.136ZM619.763 284.596C619.763 285.756 620.563 286.336 622.163 286.336C625.203 286.336 628.983 284.696 633.503 281.416L633.623 282.316C628.903 285.636 624.863 287.296 621.503 287.296C619.103 287.296 617.903 286.296 617.903 284.296C617.903 282.296 619.383 280.216 622.343 278.056C625.343 275.896 628.423 274.816 631.583 274.816C632.583 274.816 633.083 275.116 633.083 275.716C633.083 276.676 631.963 277.836 629.723 279.196C627.523 280.516 624.623 281.496 621.023 282.136C620.183 283.096 619.763 283.916 619.763 284.596Z" fill="#FF0077"/>
<path d="M606.571 275.416C607.411 275.416 607.831 275.876 607.831 276.796C607.831 277.676 607.191 278.976 605.911 280.696C610.471 277.536 614.131 275.956 616.891 275.956C617.971 275.956 618.511 276.416 618.511 277.336C618.511 278.256 618.111 279.216 617.311 280.216C616.511 281.176 615.631 282.016 614.671 282.736C612.111 284.576 610.831 285.736 610.831 286.216C610.831 286.496 611.051 286.636 611.491 286.636C611.971 286.636 612.751 286.396 613.831 285.916C614.911 285.436 615.871 284.956 616.711 284.476C617.551 283.956 618.551 283.336 619.711 282.616C620.911 281.856 621.551 281.456 621.631 281.416L621.751 282.316C616.351 285.916 612.571 287.716 610.411 287.716C609.371 287.716 608.851 287.216 608.851 286.216C608.851 285.536 609.271 284.736 610.111 283.816C610.991 282.856 611.931 281.976 612.931 281.176C615.691 279.096 617.071 277.716 617.071 277.036C617.071 276.836 616.851 276.736 616.411 276.736C614.931 276.736 612.731 277.536 609.811 279.136C606.891 280.736 603.651 283.336 600.091 286.936C599.851 287.176 599.391 287.296 598.711 287.296C598.071 287.296 597.751 287.116 597.751 286.756C597.751 286.636 599.131 285.156 601.891 282.316C604.651 279.476 606.031 277.636 606.031 276.796C606.031 276.596 605.891 276.496 605.611 276.496C605.371 276.496 604.831 276.756 603.991 277.276C603.191 277.796 601.931 278.636 600.211 279.796C598.531 280.916 597.091 281.856 595.891 282.616L595.711 281.776C596.311 281.376 597.131 280.816 598.171 280.096C599.211 279.376 600.071 278.796 600.751 278.356C601.431 277.876 602.171 277.376 602.971 276.856C604.531 275.896 605.731 275.416 606.571 275.416Z" fill="#FF0077"/>
<path d="M577.389 286.336C578.789 286.336 580.729 285.616 583.209 284.176C585.689 282.696 587.829 281.216 589.629 279.736C591.469 278.216 592.389 277.336 592.389 277.096C592.389 276.816 592.089 276.596 591.489 276.436C590.929 276.276 590.149 276.196 589.149 276.196C588.149 276.196 586.829 276.596 585.189 277.396C583.549 278.156 582.129 279.076 580.929 280.156C579.729 281.236 578.729 282.296 577.929 283.336C577.129 284.376 576.729 285.136 576.729 285.616C576.729 286.096 576.949 286.336 577.389 286.336ZM607.989 264.676C606.349 266.276 604.409 268.196 602.169 270.436C599.929 272.636 598.149 274.416 596.829 275.776C595.549 277.096 594.469 278.176 593.589 279.016C592.749 279.856 592.029 280.596 591.429 281.236C590.829 281.836 590.189 282.496 589.509 283.216C588.829 283.936 588.309 284.576 587.949 285.136C587.589 285.656 587.409 286.076 587.409 286.396C587.409 286.716 587.549 286.876 587.829 286.876C589.749 286.876 593.349 285.056 598.629 281.416L598.749 282.316C593.429 285.796 589.669 287.536 587.469 287.536C586.389 287.536 585.849 287.036 585.849 286.036C585.849 284.956 586.489 283.616 587.769 282.016C583.049 285.496 579.349 287.256 576.669 287.296C575.709 287.296 575.229 286.716 575.229 285.556C575.229 283.476 576.549 281.256 579.189 278.896C581.869 276.536 585.389 275.356 589.749 275.356C591.229 275.356 592.489 275.656 593.529 276.256C593.729 276.096 593.969 275.876 594.249 275.596L619.329 251.296C619.569 251.056 620.049 250.936 620.769 250.936C621.489 250.936 621.849 251.156 621.849 251.596C621.849 251.756 621.749 251.936 621.549 252.136C621.389 252.296 620.809 252.816 619.809 253.696C618.809 254.576 617.829 255.456 616.869 256.336C615.949 257.176 614.649 258.376 612.969 259.936C611.289 261.496 609.629 263.076 607.989 264.676Z" fill="#FF0077"/>
<path d="M558.227 286.336C559.747 286.336 561.767 285.576 564.287 284.056C566.847 282.496 568.967 280.996 570.647 279.556C572.367 278.116 573.227 277.276 573.227 277.036C573.227 276.796 572.927 276.596 572.327 276.436C571.767 276.276 570.987 276.196 569.987 276.196C568.987 276.196 567.667 276.596 566.027 277.396C564.387 278.156 562.967 279.076 561.767 280.156C560.567 281.236 559.567 282.296 558.767 283.336C557.967 284.376 557.567 285.136 557.567 285.616C557.567 286.096 557.787 286.336 558.227 286.336ZM574.307 276.256C575.107 275.616 575.547 275.296 575.627 275.296C576.707 275.416 577.267 275.516 577.307 275.596C577.347 275.636 577.367 275.696 577.367 275.776C577.367 275.856 577.207 276.116 576.887 276.556C576.567 276.956 575.627 277.936 574.067 279.496C570.187 283.296 568.247 285.596 568.247 286.396C568.247 286.716 568.387 286.876 568.667 286.876C570.587 286.876 574.187 285.056 579.467 281.416L579.587 282.316C574.267 285.796 570.507 287.536 568.307 287.536C567.227 287.536 566.687 287.036 566.687 286.036C566.687 284.996 567.307 283.656 568.547 282.016C563.827 285.496 560.147 287.256 557.507 287.296C556.547 287.296 556.067 286.716 556.067 285.556C556.067 283.476 557.387 281.256 560.027 278.896C562.707 276.536 566.227 275.356 570.587 275.356C572.027 275.356 573.267 275.656 574.307 276.256Z" fill="#FF0077"/>
<path d="M530.46 278.596C528.54 279.956 526.52 281.296 524.4 282.616L524.22 281.776L529.92 277.816C531.88 276.416 533.38 275.716 534.42 275.716C535.46 275.716 535.98 276.156 535.98 277.036C535.98 278.356 535.06 279.936 533.22 281.776L534.24 281.176C539.72 277.616 543.14 275.836 544.5 275.836C545.86 275.836 546.54 276.196 546.54 276.916C546.54 277.716 545.9 278.976 544.62 280.696C549.18 277.536 552.84 275.956 555.6 275.956C556.68 275.956 557.22 276.416 557.22 277.336C557.22 278.256 556.82 279.216 556.02 280.216C555.22 281.176 554.34 282.016 553.38 282.736C550.82 284.576 549.54 285.736 549.54 286.216C549.54 286.496 549.76 286.636 550.2 286.636C550.68 286.636 551.46 286.396 552.54 285.916C553.62 285.436 554.58 284.956 555.42 284.476C556.26 283.956 557.26 283.336 558.42 282.616C559.62 281.856 560.26 281.456 560.34 281.416L560.46 282.316C555.06 285.916 551.28 287.716 549.12 287.716C548.08 287.716 547.56 287.216 547.56 286.216C547.56 285.536 547.98 284.736 548.82 283.816C549.7 282.856 550.64 281.976 551.64 281.176C554.4 279.096 555.78 277.716 555.78 277.036C555.78 276.836 555.56 276.736 555.12 276.736C553.64 276.736 551.44 277.536 548.52 279.136C545.6 280.736 542.36 283.336 538.8 286.936C538.56 287.176 538.04 287.296 537.24 287.296C536.48 287.296 536.1 287.116 536.1 286.756C536.1 286.596 536.8 285.856 538.2 284.536C542.48 280.496 544.62 278.036 544.62 277.156C544.62 276.916 544.48 276.796 544.2 276.796C543.28 276.796 541.26 277.816 538.14 279.856C535.06 281.856 531.9 284.196 528.66 286.876C528.18 287.156 527.8 287.296 527.52 287.296C526.28 287.296 525.66 287.156 525.66 286.876C525.66 286.716 526.2 286.156 527.28 285.196C528.4 284.236 529.88 282.796 531.72 280.876C533.6 278.916 534.54 277.556 534.54 276.796C534.54 276.636 534.44 276.556 534.24 276.556C533.52 276.556 532.26 277.236 530.46 278.596Z" fill="#FF0077"/>
<path d="M714.341 255.016L713.861 254.536C715.541 253.976 717.021 253.116 718.301 251.956C719.621 250.836 720.281 249.696 720.281 248.536C719.681 248.216 719.381 247.816 719.381 247.336C719.381 246.816 719.701 246.316 720.341 245.836C721.021 245.356 721.661 245.116 722.261 245.116C722.861 245.116 723.161 245.396 723.161 245.956C723.161 247.156 722.201 248.816 720.281 250.936C718.361 253.056 716.381 254.416 714.341 255.016Z" fill="#FF0077"/>
<path d="M682.143 266.836C681.063 267.676 680.283 268.476 679.803 269.236C679.323 270.036 679.083 270.876 679.083 271.756C679.083 272.636 679.523 273.076 680.403 273.076C682.563 273.076 688.903 267.716 699.423 256.996C692.343 260.396 687.963 262.676 686.283 263.836C684.563 264.996 683.183 265.996 682.143 266.836ZM679.983 273.916C678.823 273.916 678.243 273.256 678.243 271.936C678.243 270.616 678.843 269.256 680.043 267.856C681.243 266.496 683.023 265.096 685.383 263.656C689.103 261.416 694.083 258.776 700.323 255.736C700.603 255.616 700.823 255.516 700.983 255.436C701.663 254.756 702.743 253.616 704.223 252.016C705.743 250.416 707.063 249.056 708.183 247.936C704.583 250.296 702.083 251.476 700.683 251.476C699.283 251.476 698.583 250.976 698.583 249.976C698.583 248.616 700.383 246.476 703.983 243.556C705.143 242.596 705.723 241.976 705.723 241.696C705.723 241.376 705.563 241.216 705.243 241.216C704.563 241.216 703.423 241.696 701.823 242.656C700.263 243.616 699.283 244.216 698.883 244.456C698.483 244.696 697.883 245.076 697.083 245.596C696.323 246.076 695.783 246.416 695.463 246.616L695.283 245.776C700.763 242.176 704.283 240.376 705.843 240.376C706.883 240.376 707.403 240.956 707.403 242.116C707.403 243.356 705.603 245.416 702.003 248.296C700.803 249.256 700.203 249.896 700.203 250.216C700.203 250.416 700.463 250.516 700.983 250.516C702.183 250.516 704.023 249.736 706.503 248.176C708.983 246.576 711.063 244.996 712.743 243.436C715.183 241.156 716.503 240.016 716.703 240.016C716.943 240.016 717.283 240.076 717.723 240.196C718.203 240.316 718.443 240.456 718.443 240.616C718.443 240.736 718.163 241.056 717.603 241.576C717.043 242.056 713.243 245.816 706.203 252.856C710.123 250.856 713.183 249.176 715.383 247.816C717.623 246.456 718.923 245.656 719.283 245.416L719.403 246.316C717.603 247.356 716.323 248.136 715.563 248.656C712.763 250.376 709.083 252.336 704.523 254.536C698.603 260.456 693.563 265.156 689.403 268.636C685.203 272.156 682.063 273.916 679.983 273.916Z" fill="#FF0077"/>
<path d="M715.211 221.056C715.211 221.216 714.991 221.516 714.551 221.956C714.111 222.356 713.311 223.096 712.151 224.176C711.031 225.216 709.671 226.476 708.071 227.956C706.471 229.436 705.131 230.676 704.051 231.676H714.071C714.191 231.676 714.251 231.756 714.251 231.916C714.251 232.396 714.071 232.636 713.711 232.636H703.031C692.711 242.396 687.551 248.176 687.551 249.976C687.551 250.416 687.831 250.636 688.391 250.636C689.351 250.636 692.151 249.176 696.791 246.256C697.591 245.776 698.071 245.496 698.231 245.416L698.351 246.316C692.911 249.916 689.051 251.716 686.771 251.716C685.571 251.716 684.971 251.276 684.971 250.396C684.971 249.156 685.911 247.476 687.791 245.356C690.271 242.396 694.411 238.176 700.211 232.696H689.891C689.331 232.696 689.051 232.536 689.051 232.216C689.051 231.856 689.211 231.676 689.531 231.676H701.231L713.231 220.636C713.431 220.476 713.811 220.416 714.371 220.456C714.931 220.496 715.211 220.696 715.211 221.056Z" fill="#FF0077"/>
<path d="M674.983 239.596C675.183 239.436 675.723 239.396 676.603 239.476C677.043 239.556 677.263 239.656 677.263 239.776C677.263 239.856 677.163 240.016 676.963 240.256C676.763 240.496 675.803 241.456 674.083 243.136C670.523 246.616 668.743 248.796 668.743 249.676C668.743 249.876 668.863 249.976 669.103 249.976C670.463 249.976 675.403 247.096 683.923 241.336L685.543 240.016C685.743 239.856 686.123 239.796 686.683 239.836C687.243 239.876 687.523 240.076 687.523 240.436C687.523 240.596 687.463 240.736 687.343 240.856C681.743 245.896 678.943 248.936 678.943 249.976C678.943 250.416 679.263 250.636 679.903 250.636C680.543 250.636 681.403 250.396 682.483 249.916C683.563 249.436 684.523 248.956 685.363 248.476C686.203 247.956 687.203 247.336 688.363 246.616C689.563 245.856 690.203 245.456 690.283 245.416L690.403 246.316C688.563 247.516 686.463 248.716 684.103 249.916C681.743 251.116 679.943 251.716 678.703 251.716C677.503 251.716 676.903 251.216 676.903 250.216C676.903 248.816 677.983 246.996 680.143 244.756C673.863 248.836 669.983 250.876 668.503 250.876C667.623 250.876 667.183 250.356 667.183 249.316C667.183 247.116 669.783 243.876 674.983 239.596Z" fill="#FF0077"/>
<path d="M650.12 250.336C651.64 250.336 653.66 249.576 656.18 248.056C658.74 246.496 660.86 244.996 662.54 243.556C664.26 242.116 665.12 241.276 665.12 241.036C665.12 240.796 664.82 240.596 664.22 240.436C663.66 240.276 662.88 240.196 661.88 240.196C660.88 240.196 659.56 240.596 657.92 241.396C656.28 242.156 654.86 243.076 653.66 244.156C652.46 245.236 651.46 246.296 650.66 247.336C649.86 248.376 649.46 249.136 649.46 249.616C649.46 250.096 649.68 250.336 650.12 250.336ZM666.2 240.256C667 239.616 667.44 239.296 667.52 239.296C668.6 239.416 669.16 239.516 669.2 239.596C669.24 239.636 669.26 239.696 669.26 239.776C669.26 239.856 669.1 240.116 668.78 240.556C668.46 240.956 667.52 241.936 665.96 243.496C662.08 247.296 660.14 249.596 660.14 250.396C660.14 250.716 660.28 250.876 660.56 250.876C662.48 250.876 666.08 249.056 671.36 245.416L671.48 246.316C666.16 249.796 662.4 251.536 660.2 251.536C659.12 251.536 658.58 251.036 658.58 250.036C658.58 248.996 659.2 247.656 660.44 246.016C655.72 249.496 652.04 251.256 649.4 251.296C648.44 251.296 647.96 250.716 647.96 249.556C647.96 247.476 649.28 245.256 651.92 242.896C654.6 240.536 658.12 239.356 662.48 239.356C663.92 239.356 665.16 239.656 666.2 240.256Z" fill="#FF0077"/>
<path d="M650.223 240.136C650.223 239.816 649.903 239.656 649.263 239.656C648.623 239.656 647.323 240.276 645.363 241.516C643.403 242.716 641.743 244.016 640.383 245.416C643.063 244.976 645.363 244.176 647.283 243.016C649.243 241.816 650.223 240.856 650.223 240.136ZM638.463 248.596C638.463 249.756 639.263 250.336 640.863 250.336C643.903 250.336 647.683 248.696 652.203 245.416L652.323 246.316C647.603 249.636 643.563 251.296 640.203 251.296C637.803 251.296 636.603 250.296 636.603 248.296C636.603 246.296 638.083 244.216 641.043 242.056C644.043 239.896 647.123 238.816 650.283 238.816C651.283 238.816 651.783 239.116 651.783 239.716C651.783 240.676 650.663 241.836 648.423 243.196C646.223 244.516 643.323 245.496 639.723 246.136C638.883 247.096 638.463 247.916 638.463 248.596Z" fill="#FF0077"/>
<path d="M658.202 215.596C656.202 215.596 651.522 218.816 644.162 225.256C636.802 231.696 630.842 237.616 626.282 243.016C631.602 239.376 638.302 234.256 646.382 227.656C654.462 221.016 658.502 217.056 658.502 215.776C658.502 215.656 658.402 215.596 658.202 215.596ZM623.042 250.516C624.802 250.516 628.162 248.536 633.122 244.576C633.602 243.256 634.362 242.036 635.402 240.916C636.442 239.796 637.502 239.236 638.582 239.236C638.982 239.236 639.182 239.376 639.182 239.656C639.182 240.576 637.542 242.356 634.262 244.996C634.142 245.436 634.082 245.796 634.082 246.076C634.082 247.396 634.562 248.056 635.522 248.056C636.682 248.056 638.542 247.196 641.102 245.476L641.222 246.316C638.342 248.316 636.202 249.316 634.802 249.316C633.442 249.316 632.762 248.316 632.762 246.316V246.136C628.082 249.696 624.662 251.476 622.502 251.476C621.262 251.476 620.642 250.976 620.642 249.976C620.642 247.776 623.202 243.816 628.322 238.096C633.482 232.336 639.162 227.016 645.362 222.136C651.602 217.256 656.022 214.816 658.622 214.816C659.102 214.816 659.342 214.996 659.342 215.356C659.342 216.316 658.362 217.836 656.402 219.916C654.482 221.956 651.882 224.296 648.602 226.936C645.322 229.576 642.262 231.976 639.422 234.136C636.582 236.296 633.502 238.596 630.182 241.036C626.862 243.436 624.962 244.836 624.482 245.236C622.882 247.356 622.082 248.856 622.082 249.736C622.082 250.256 622.402 250.516 623.042 250.516Z" fill="#FF0077"/>
<path d="M613.242 238.156C613.402 237.916 613.582 237.796 613.782 237.796C614.022 237.796 614.142 237.916 614.142 238.156C614.142 238.396 614.022 238.636 613.782 238.876C613.542 239.116 613.362 239.856 613.242 241.096C613.162 242.296 612.862 243.776 612.342 245.536C611.822 247.256 610.922 248.816 609.642 250.216C609.642 250.296 609.722 250.336 609.882 250.336C610.162 250.336 611.182 249.856 612.942 248.896L613.782 248.476C615.302 247.636 616.922 246.616 618.642 245.416L618.762 246.316C612.522 250.356 607.742 252.376 604.422 252.376C603.102 252.376 602.142 252.096 601.542 251.536C600.902 250.976 600.582 250.356 600.582 249.676C600.582 248.996 600.742 248.456 601.062 248.056C601.382 247.616 601.782 247.396 602.262 247.396C602.862 247.396 603.162 247.716 603.162 248.356C603.162 248.756 602.842 249.116 602.202 249.436C602.002 249.556 601.902 249.756 601.902 250.036C601.902 250.316 602.142 250.636 602.622 250.996C603.062 251.396 603.542 251.596 604.062 251.596C605.822 251.596 607.322 250.496 608.562 248.296C609.842 246.056 610.662 243.836 611.022 241.636V241.456C607.142 244.096 604.522 245.816 603.162 246.616L602.982 245.776C609.502 241.576 612.922 239.036 613.242 238.156Z" fill="#FF0077"/>
<path d="M608.084 234.376C608.084 234.936 607.764 235.476 607.124 235.996C606.484 236.516 605.884 236.776 605.324 236.776C604.804 236.776 604.544 236.556 604.544 236.116C604.544 235.676 604.864 235.176 605.504 234.616C606.144 234.016 606.724 233.716 607.244 233.716C607.804 233.716 608.084 233.936 608.084 234.376ZM602.984 240.856C597.584 245.736 594.884 248.796 594.884 250.036C594.884 250.436 595.164 250.636 595.724 250.636C596.244 250.636 597.044 250.396 598.124 249.916C599.204 249.436 600.164 248.956 601.004 248.476C601.844 247.956 602.844 247.336 604.004 246.616C605.204 245.856 605.844 245.456 605.924 245.416L606.044 246.316C604.204 247.516 602.104 248.716 599.744 249.916C597.384 251.116 595.604 251.716 594.404 251.716C593.164 251.716 592.544 251.216 592.544 250.216C592.544 249.376 593.264 248.116 594.704 246.436C596.144 244.716 597.584 243.216 599.024 241.936L601.184 240.016C601.384 239.856 601.764 239.796 602.324 239.836C602.884 239.876 603.164 240.076 603.164 240.436C603.164 240.596 603.104 240.736 602.984 240.856Z" fill="#FF0077"/>
<path d="M576.569 239.416C577.409 239.416 577.829 239.876 577.829 240.796C577.829 241.676 577.189 242.976 575.909 244.696C580.469 241.536 584.129 239.956 586.889 239.956C587.969 239.956 588.509 240.416 588.509 241.336C588.509 242.256 588.109 243.216 587.309 244.216C586.509 245.176 585.629 246.016 584.669 246.736C582.109 248.576 580.829 249.736 580.829 250.216C580.829 250.496 581.049 250.636 581.489 250.636C581.969 250.636 582.749 250.396 583.829 249.916C584.909 249.436 585.869 248.956 586.709 248.476C587.549 247.956 588.549 247.336 589.709 246.616C590.909 245.856 591.549 245.456 591.629 245.416L591.749 246.316C586.349 249.916 582.569 251.716 580.409 251.716C579.369 251.716 578.849 251.216 578.849 250.216C578.849 249.536 579.269 248.736 580.109 247.816C580.989 246.856 581.929 245.976 582.929 245.176C585.689 243.096 587.069 241.716 587.069 241.036C587.069 240.836 586.849 240.736 586.409 240.736C584.929 240.736 582.729 241.536 579.809 243.136C576.889 244.736 573.649 247.336 570.089 250.936C569.849 251.176 569.389 251.296 568.709 251.296C568.069 251.296 567.749 251.116 567.749 250.756C567.749 250.636 569.129 249.156 571.889 246.316C574.649 243.476 576.029 241.636 576.029 240.796C576.029 240.596 575.889 240.496 575.609 240.496C575.369 240.496 574.829 240.756 573.989 241.276C573.189 241.796 571.929 242.636 570.209 243.796C568.529 244.916 567.089 245.856 565.889 246.616L565.709 245.776C566.309 245.376 567.129 244.816 568.169 244.096C569.209 243.376 570.069 242.796 570.749 242.356C571.429 241.876 572.169 241.376 572.969 240.856C574.529 239.896 575.729 239.416 576.569 239.416Z" fill="#FF0077"/>
<path d="M551.281 250.696C554.161 250.696 556.961 249.256 559.681 246.376V246.316C559.681 244.396 560.601 242.596 562.441 240.916C562.321 240.476 561.981 240.256 561.421 240.256C558.461 240.256 555.841 241.376 553.561 243.616C551.281 245.816 550.141 247.756 550.141 249.436C550.141 250.276 550.521 250.696 551.281 250.696ZM560.581 239.356C562.701 239.356 563.761 240.056 563.761 241.456C563.761 242.656 563.021 244.096 561.541 245.776V246.256C561.541 247.576 562.121 248.236 563.281 248.236C564.001 248.236 564.801 247.936 565.681 247.336L568.621 245.416L568.741 246.316L565.981 248.056C564.701 248.896 563.441 249.316 562.201 249.316C561.001 249.316 560.201 248.696 559.801 247.456C556.601 250.296 553.561 251.716 550.681 251.716C548.961 251.716 548.101 250.896 548.101 249.256C548.101 247.176 549.321 245.016 551.761 242.776C554.201 240.496 557.141 239.356 560.581 239.356Z" fill="#FF0077"/>
<path d="M554.402 234.376C554.402 234.936 554.082 235.476 553.442 235.996C552.802 236.516 552.202 236.776 551.642 236.776C551.122 236.776 550.862 236.556 550.862 236.116C550.862 235.676 551.182 235.176 551.822 234.616C552.462 234.016 553.042 233.716 553.562 233.716C554.122 233.716 554.402 233.936 554.402 234.376ZM549.302 240.856C543.902 245.736 541.202 248.796 541.202 250.036C541.202 250.436 541.482 250.636 542.042 250.636C542.562 250.636 543.362 250.396 544.442 249.916C545.522 249.436 546.482 248.956 547.322 248.476C548.162 247.956 549.162 247.336 550.322 246.616C551.522 245.856 552.162 245.456 552.242 245.416L552.362 246.316C550.522 247.516 548.422 248.716 546.062 249.916C543.702 251.116 541.922 251.716 540.722 251.716C539.482 251.716 538.862 251.216 538.862 250.216C538.862 249.376 539.582 248.116 541.022 246.436C542.462 244.716 543.902 243.216 545.342 241.936L547.502 240.016C547.702 239.856 548.082 239.796 548.642 239.836C549.202 239.876 549.482 240.076 549.482 240.436C549.482 240.596 549.422 240.736 549.302 240.856Z" fill="#FF0077"/>
<path d="M561.55 221.056C561.55 221.216 561.33 221.516 560.89 221.956C560.45 222.356 559.65 223.096 558.49 224.176C557.37 225.216 556.01 226.476 554.41 227.956C552.81 229.436 551.47 230.676 550.39 231.676H560.41C560.53 231.676 560.59 231.756 560.59 231.916C560.59 232.396 560.41 232.636 560.05 232.636H549.37C539.05 242.396 533.89 248.176 533.89 249.976C533.89 250.416 534.17 250.636 534.73 250.636C535.69 250.636 538.49 249.176 543.13 246.256C543.93 245.776 544.41 245.496 544.57 245.416L544.69 246.316C539.25 249.916 535.39 251.716 533.11 251.716C531.91 251.716 531.31 251.276 531.31 250.396C531.31 249.156 532.25 247.476 534.13 245.356C536.61 242.396 540.75 238.176 546.55 232.696H536.23C535.67 232.696 535.39 232.536 535.39 232.216C535.39 231.856 535.55 231.676 535.87 231.676H547.57L559.57 220.636C559.77 220.476 560.15 220.416 560.71 220.456C561.27 220.496 561.55 220.696 561.55 221.056Z" fill="#FF0077"/>
<path d="M522.075 248.956C522.075 249.996 522.815 250.516 524.295 250.516C525.815 250.516 527.755 250.036 530.115 249.076C532.475 248.076 534.655 246.856 536.655 245.416L536.775 246.316C534.695 247.836 532.355 249.096 529.755 250.096C527.195 251.096 525.015 251.596 523.215 251.596C520.815 251.596 519.615 250.716 519.615 248.956C519.615 247.036 521.115 244.916 524.115 242.596C527.115 240.236 530.015 239.056 532.815 239.056C534.175 239.056 534.855 239.556 534.855 240.556C534.855 241.236 534.595 241.876 534.075 242.476C533.595 243.076 532.975 243.376 532.215 243.376C531.455 243.376 531.075 243.176 531.075 242.776C531.075 242.376 531.295 242.016 531.735 241.696C532.175 241.376 532.655 241.216 533.175 241.216C533.735 241.176 534.015 240.976 534.015 240.616C534.015 240.416 533.895 240.236 533.655 240.076C533.415 239.876 533.115 239.776 532.755 239.776C530.835 239.776 528.575 240.936 525.975 243.256C523.375 245.536 522.075 247.436 522.075 248.956Z" fill="#FF0077"/>
<path d="M521.819 240.136C521.819 239.816 521.499 239.656 520.859 239.656C520.219 239.656 518.919 240.276 516.959 241.516C514.999 242.716 513.339 244.016 511.979 245.416C514.659 244.976 516.959 244.176 518.879 243.016C520.839 241.816 521.819 240.856 521.819 240.136ZM510.059 248.596C510.059 249.756 510.859 250.336 512.459 250.336C515.499 250.336 519.279 248.696 523.799 245.416L523.919 246.316C519.199 249.636 515.159 251.296 511.799 251.296C509.399 251.296 508.199 250.296 508.199 248.296C508.199 246.296 509.679 244.216 512.639 242.056C515.639 239.896 518.719 238.816 521.879 238.816C522.879 238.816 523.379 239.116 523.379 239.716C523.379 240.676 522.259 241.836 520.019 243.196C517.819 244.516 514.919 245.496 511.319 246.136C510.479 247.096 510.059 247.916 510.059 248.596Z" fill="#FF0077"/>
<path d="M478.172 272.836C478.172 273.276 478.412 273.496 478.892 273.496C480.292 273.496 482.332 271.976 485.012 268.936C487.692 265.896 490.232 262.436 492.632 258.556C495.032 254.676 496.652 251.456 497.492 248.896C497.372 248.736 497.312 248.536 497.312 248.296C491.752 254.216 487.172 259.456 483.572 264.016C479.972 268.576 478.172 271.516 478.172 272.836ZM533.252 217.276C533.252 216.996 533.052 216.856 532.652 216.856C531.012 216.856 527.192 219.516 521.192 224.836C515.232 230.116 508.652 236.476 501.452 243.916C507.452 240.076 514.252 235.016 521.852 228.736C529.452 222.456 533.252 218.636 533.252 217.276ZM498.812 248.056C499.092 249.336 500.032 249.976 501.632 249.976C503.992 249.976 507.392 248.456 511.832 245.416L511.952 246.316C507.552 249.276 503.912 250.756 501.032 250.756C499.712 250.756 498.732 250.436 498.092 249.796C496.692 252.996 494.872 256.396 492.632 259.996C490.392 263.636 487.912 266.916 485.192 269.836C482.432 272.796 480.112 274.276 478.232 274.276C477.112 274.276 476.552 273.796 476.552 272.836C476.552 270.676 479.092 266.436 484.172 260.116C489.252 253.836 495.012 247.456 501.452 240.976C507.932 234.456 514.292 228.656 520.532 223.576C526.812 218.456 530.992 215.896 533.072 215.896C533.992 215.896 534.452 216.196 534.452 216.796C534.452 218.156 532.232 220.836 527.792 224.836C523.392 228.836 518.452 232.856 512.972 236.896C507.532 240.896 503.032 243.936 499.472 246.016L499.412 246.076C499.332 246.436 499.132 247.096 498.812 248.056Z" fill="#FF0077"/>
<path d="M489.958 241.696L492.778 241.336C493.258 241.336 493.638 241.496 493.918 241.816C494.198 242.136 494.338 242.516 494.338 242.956C494.338 243.836 493.718 244.796 492.478 245.836C491.238 246.876 489.998 247.856 488.758 248.776C487.558 249.696 486.958 250.436 486.958 250.996C486.958 251.316 487.218 251.476 487.738 251.476C489.458 251.476 492.078 250.476 495.598 248.476C497.118 247.636 498.738 246.616 500.458 245.416L500.578 246.316C499.218 247.196 497.698 248.096 496.018 249.016C495.058 249.616 493.658 250.296 491.818 251.056C489.978 251.856 488.458 252.256 487.258 252.256C486.058 252.256 485.458 251.716 485.458 250.636C485.458 249.396 486.098 248.236 487.378 247.156C488.658 246.036 489.918 245.116 491.158 244.396C492.438 243.636 493.078 243.056 493.078 242.656C493.078 242.536 492.938 242.476 492.658 242.476L489.298 242.776C488.658 242.776 488.078 242.716 487.558 242.596C485.638 243.956 483.618 245.296 481.498 246.616L481.318 245.776L487.018 241.816C487.058 241.056 487.538 240.296 488.458 239.536C489.378 238.776 490.158 238.396 490.798 238.396C491.438 238.396 491.758 238.576 491.758 238.936C491.758 239.256 491.378 239.676 490.618 240.196C489.858 240.716 489.478 241.096 489.478 241.336C489.478 241.576 489.638 241.696 489.958 241.696Z" fill="#FF0077"/>
<path d="M482.261 240.136C482.261 239.816 481.941 239.656 481.301 239.656C480.661 239.656 479.361 240.276 477.401 241.516C475.441 242.716 473.781 244.016 472.421 245.416C475.101 244.976 477.401 244.176 479.321 243.016C481.281 241.816 482.261 240.856 482.261 240.136ZM470.501 248.596C470.501 249.756 471.301 250.336 472.901 250.336C475.941 250.336 479.721 248.696 484.241 245.416L484.361 246.316C479.641 249.636 475.601 251.296 472.241 251.296C469.841 251.296 468.641 250.296 468.641 248.296C468.641 246.296 470.121 244.216 473.081 242.056C476.081 239.896 479.161 238.816 482.321 238.816C483.321 238.816 483.821 239.116 483.821 239.716C483.821 240.676 482.701 241.836 480.461 243.196C478.261 244.516 475.361 245.496 471.761 246.136C470.921 247.096 470.501 247.916 470.501 248.596Z" fill="#FF0077"/>
<path d="M465.799 240.436C466.279 240.436 466.659 240.596 466.939 240.916C467.219 241.236 467.359 241.616 467.359 242.056C467.359 242.936 466.639 243.976 465.199 245.176C463.799 246.376 462.379 247.516 460.939 248.596C459.539 249.636 458.839 250.436 458.839 250.996C458.839 251.316 459.099 251.476 459.619 251.476C461.339 251.476 463.959 250.476 467.479 248.476C468.999 247.636 470.619 246.616 472.339 245.416L472.459 246.316C471.099 247.196 469.579 248.096 467.899 249.016C466.939 249.616 465.539 250.296 463.699 251.056C461.859 251.856 460.339 252.256 459.139 252.256C457.939 252.256 457.339 251.716 457.339 250.636C457.339 249.556 458.059 248.356 459.499 247.036C460.979 245.716 462.439 244.556 463.879 243.556C465.359 242.556 466.099 241.936 466.099 241.696C466.099 241.416 465.759 241.276 465.079 241.276C463.239 241.276 460.439 242.436 456.679 244.756C454.879 245.836 451.919 248.276 447.799 252.076L433.159 266.116C430.079 269.116 428.399 270.756 428.119 271.036C427.799 271.356 427.299 271.516 426.619 271.516C425.899 271.516 425.539 271.376 425.539 271.096C425.539 270.536 436.639 259.936 458.839 239.296L453.979 242.596C452.059 243.956 450.039 245.296 447.919 246.616L447.739 245.776C455.179 240.656 460.419 237.016 463.459 234.856C468.299 230.376 471.019 228.136 471.619 228.136C471.939 228.136 472.099 228.316 472.099 228.676C472.099 229.236 470.079 231.056 466.039 234.136L454.339 245.476C459.219 242.116 463.039 240.436 465.799 240.436Z" fill="#FF0077"/>
<path d="M420.812 242.596C418.892 243.956 416.872 245.296 414.752 246.616L414.572 245.776L420.272 241.816C422.232 240.416 423.732 239.716 424.772 239.716C425.812 239.716 426.332 240.156 426.332 241.036C426.332 242.356 425.412 243.936 423.572 245.776L424.592 245.176C430.072 241.616 433.492 239.836 434.852 239.836C436.212 239.836 436.892 240.196 436.892 240.916C436.892 241.716 436.252 242.976 434.972 244.696C439.532 241.536 443.192 239.956 445.952 239.956C447.032 239.956 447.572 240.416 447.572 241.336C447.572 242.256 447.172 243.216 446.372 244.216C445.572 245.176 444.692 246.016 443.732 246.736C441.172 248.576 439.892 249.736 439.892 250.216C439.892 250.496 440.112 250.636 440.552 250.636C441.032 250.636 441.812 250.396 442.892 249.916C443.972 249.436 444.932 248.956 445.772 248.476C446.612 247.956 447.612 247.336 448.772 246.616C449.972 245.856 450.612 245.456 450.692 245.416L450.812 246.316C445.412 249.916 441.632 251.716 439.472 251.716C438.432 251.716 437.912 251.216 437.912 250.216C437.912 249.536 438.332 248.736 439.172 247.816C440.052 246.856 440.992 245.976 441.992 245.176C444.752 243.096 446.132 241.716 446.132 241.036C446.132 240.836 445.912 240.736 445.472 240.736C443.992 240.736 441.792 241.536 438.872 243.136C435.952 244.736 432.712 247.336 429.152 250.936C428.912 251.176 428.392 251.296 427.592 251.296C426.832 251.296 426.452 251.116 426.452 250.756C426.452 250.596 427.152 249.856 428.552 248.536C432.832 244.496 434.972 242.036 434.972 241.156C434.972 240.916 434.832 240.796 434.552 240.796C433.632 240.796 431.612 241.816 428.492 243.856C425.412 245.856 422.252 248.196 419.012 250.876C418.532 251.156 418.152 251.296 417.872 251.296C416.632 251.296 416.012 251.156 416.012 250.876C416.012 250.716 416.552 250.156 417.632 249.196C418.752 248.236 420.232 246.796 422.072 244.876C423.952 242.916 424.892 241.556 424.892 240.796C424.892 240.636 424.792 240.556 424.592 240.556C423.872 240.556 422.612 241.236 420.812 242.596Z" fill="#FF0077"/>
<path d="M422.596 227.656C423.636 227.536 424.456 227.336 425.056 227.056C425.696 226.736 426.016 226.396 426.016 226.036C426.016 225.676 425.656 225.416 424.936 225.256C424.736 225.456 424.376 225.836 423.856 226.396C423.336 226.956 422.916 227.376 422.596 227.656ZM418.816 227.716L421.456 225.136C419.096 225.176 416.616 225.476 414.016 226.036C415.016 226.916 416.616 227.476 418.816 227.716ZM455.476 206.896C455.476 206.176 454.696 205.816 453.136 205.816C449.256 205.816 445.156 207.336 440.836 210.376C445.676 210.056 448.996 209.756 450.796 209.476C453.916 208.956 455.476 208.096 455.476 206.896ZM436.636 211.756C428.676 212.436 423.196 213.356 420.196 214.516C416.756 215.836 414.516 217.416 413.476 219.256C412.876 220.336 412.576 221.456 412.576 222.616C412.576 223.776 412.836 224.696 413.356 225.376C416.316 224.656 419.316 224.276 422.356 224.236C428.236 218.516 432.996 214.356 436.636 211.756ZM417.916 228.556C415.516 228.316 413.736 227.596 412.576 226.396C406.856 227.956 402.276 230.536 398.836 234.136C395.436 237.696 393.736 241.156 393.736 244.516C393.736 245.756 393.976 246.816 394.456 247.696C397.016 246.336 399.756 244.536 402.676 242.296C405.596 240.016 408.076 237.936 410.116 236.056C412.156 234.176 414.756 231.676 417.916 228.556ZM366.616 241.756C366.616 242.156 366.476 242.516 366.196 242.836C365.916 243.156 365.656 243.316 365.416 243.316C365.216 243.316 365.036 243.296 364.876 243.256C364.716 243.256 364.636 243.496 364.636 243.976C364.636 245.816 365.536 247.336 367.336 248.536C370.336 250.536 374.636 251.536 380.236 251.536C384.516 251.536 388.996 250.396 393.676 248.116C393.196 247.036 392.956 245.836 392.956 244.516C392.956 242.276 393.636 239.976 394.996 237.616C396.356 235.216 398.516 232.916 401.476 230.716C404.436 228.476 407.936 226.796 411.976 225.676C411.456 224.916 411.196 223.936 411.196 222.736C411.196 221.536 411.476 220.376 412.036 219.256C412.636 218.136 413.396 217.176 414.316 216.376C415.276 215.576 416.496 214.876 417.976 214.276C419.456 213.636 420.916 213.136 422.356 212.776C423.796 212.376 425.516 212.016 427.516 211.696C429.996 211.336 433.576 210.976 438.256 210.616C443.856 206.896 449.116 205.036 454.036 205.036C454.916 205.036 455.516 205.156 455.836 205.396C456.196 205.596 456.376 206.056 456.376 206.776C456.376 207.496 455.956 208.156 455.116 208.756C454.276 209.316 452.996 209.776 451.276 210.136C448.276 210.696 444.356 211.156 439.516 211.516C439.476 211.516 439.436 211.516 439.396 211.516H439.336C436.856 213.356 433.916 215.996 430.516 219.436C429.436 220.556 427.856 222.196 425.776 224.356C426.896 224.596 427.456 225.036 427.456 225.676C427.456 226.276 426.936 226.856 425.896 227.416C424.896 227.936 423.536 228.296 421.816 228.496C417.016 233.416 412.536 237.576 408.376 240.976C404.256 244.336 399.916 247.016 395.356 249.016C397.276 250.616 399.576 251.416 402.256 251.416C406.376 251.416 411.456 249.416 417.496 245.416L417.616 246.316C411.816 250.356 406.656 252.376 402.136 252.376C400.536 252.376 399.096 252.116 397.816 251.596C396.576 251.116 395.716 250.616 395.236 250.096L394.516 249.376C389.556 251.376 384.576 252.376 379.576 252.376C376.696 252.376 373.596 251.936 370.276 251.056C368.396 250.536 366.856 249.696 365.656 248.536C364.496 247.376 363.916 245.956 363.916 244.276C363.916 243.316 364.076 242.576 364.396 242.056C364.756 241.496 365.116 241.176 365.476 241.096L365.956 241.036C366.396 241.076 366.616 241.316 366.616 241.756Z" fill="#FF0077"/>
</svg>
